<?xml version="1.0" encoding="utf-8"?>
<!-- Generator: Adobe Illustrator 16.0.3, SVG Export Plug-In . SVG Version: 6.00 Build 0)  -->
<!DOCTYPE svg PUBLIC "-//W3C//DTD SVG 1.1//EN" "http://www.w3.org/Graphics/SVG/1.1/DTD/svg11.dtd">
<svg version="1.1" id="Ebene_1" xmlns="http://www.w3.org/2000/svg" xmlns:xlink="http://www.w3.org/1999/xlink" x="0px" y="0px"
	 width="80px" height="80px" viewBox="0 0 80 80" enable-background="new 0 0 80 80" xml:space="preserve">
<g id="Search">
	<path fill="#509DC9" d="M78.042,68.588l-17.38-17.379c-0.092-0.094-0.2-0.158-0.297-0.244c3.42-5.188,5.416-11.396,5.416-18.074
		C65.781,14.726,51.056,0,32.891,0S0,14.726,0,32.891c0,18.164,14.726,32.891,32.891,32.891c6.678,0,12.887-1.996,18.074-5.416
		c0.086,0.096,0.15,0.205,0.243,0.297l17.38,17.381c2.61,2.609,6.843,2.609,9.454,0C80.652,75.432,80.652,71.199,78.042,68.588z
		 M32.891,54.379c-11.868,0-21.488-9.621-21.488-21.488c0-11.868,9.62-21.489,21.488-21.489c11.867,0,21.488,9.621,21.488,21.489
		C54.379,44.758,44.758,54.379,32.891,54.379z"/>
</g>
</svg>
