<?xml version="1.0" encoding="utf-8"?>
<!-- Generator: Adobe Illustrator 16.0.3, SVG Export Plug-In . SVG Version: 6.00 Build 0)  -->
<!DOCTYPE svg PUBLIC "-//W3C//DTD SVG 1.1//EN" "http://www.w3.org/Graphics/SVG/1.1/DTD/svg11.dtd">
<svg version="1.1" id="Ebene_1" xmlns="http://www.w3.org/2000/svg" xmlns:xlink="http://www.w3.org/1999/xlink" x="0px" y="0px"
	 width="80px" height="80px" viewBox="0 0 80 80" enable-background="new 0 0 80 80" xml:space="preserve">
<g>
	<g>
		<path fill="#509DC9" d="M24.738,18.596l7.26,3.935v3.176c0,1.136,0.925,2.058,2.058,2.058c1.136,0,2.058-0.921,2.058-2.058v-0.945
			l3.814,2.069c0.31,0.166,0.648,0.249,0.982,0.249s0.669-0.083,0.975-0.249l15.2-8.232c0.665-0.357,1.08-1.052,1.08-1.807
			c0-0.755-0.415-1.45-1.08-1.809L41.888,6.75c-0.611-0.332-1.343-0.332-1.956,0l-15.197,8.232c-0.66,0.359-1.076,1.054-1.076,1.809
			C23.663,17.544,24.075,18.239,24.738,18.596z M40.914,22.68l-2.881-1.564l10.227-6.243l3.533,1.914L40.914,22.68z M40.917,10.898
			l3.159,1.711l-10.229,6.245l-3.806-2.063L40.917,10.898z M78.928,28.241l-15.193-8.232c-0.615-0.333-1.348-0.333-1.963,0
			l-15.193,8.232c-0.661,0.359-1.08,1.053-1.08,1.809c0,0.753,0.418,1.45,1.08,1.807l7.26,3.935v3.176
			c0,1.137,0.921,2.057,2.058,2.057c1.133,0,2.054-0.92,2.054-2.057V38.02l2.745,1.489v14.067l-4.239-2.295v-6.827
			c0-0.755-0.418-1.449-1.076-1.805l-15.197-8.23c-0.612-0.334-1.348-0.334-1.96,0l-15.197,8.23
			c-0.661,0.355-1.076,1.052-1.076,1.805v8.771l-1.608,0.857V39.98l13.088-7.088c0.663-0.359,1.08-1.054,1.08-1.809
			c0-0.755-0.417-1.45-1.08-1.809l-15.193-8.232c-0.615-0.332-1.348-0.332-1.963,0l-15.197,8.23C0.414,29.632,0,30.328,0,31.082
			v18.746c0,0.756,0.414,1.45,1.076,1.81l15.197,8.231c0.306,0.166,0.641,0.249,0.978,0.249c0.335,0,0.663-0.079,0.965-0.241
			l3.73-1.988v5.32c0,0.752,0.415,1.446,1.076,1.806l15.193,8.231c0.304,0.17,0.645,0.253,0.98,0.253
			c0.339,0,0.672-0.083,0.978-0.253l15.201-8.231c0.661-0.359,1.076-1.054,1.076-1.806v-7.245l5.314,2.878
			c0.306,0.165,0.645,0.248,0.978,0.248c0.339,0,0.676-0.083,0.978-0.248l15.201-8.236C79.585,50.249,80,49.555,80,48.8V30.052
			C80.007,29.293,79.593,28.598,78.928,28.241z M17.25,36.966l-2.881-1.563l10.232-6.243l3.529,1.914L17.25,36.966z M17.254,25.185
			l3.159,1.713l-10.229,6.243l-3.806-2.063L17.254,25.185z M4.117,34.534l4.224,2.288v3.174c0,1.135,0.921,2.056,2.058,2.056
			c1.133,0,2.054-0.921,2.054-2.056V39.05l3.774,2.041V55.16l-12.11-6.562V34.534z M39.2,50.342l-2.884-1.561l10.232-6.246
			l3.533,1.913L39.2,50.342z M39.2,38.564l3.163,1.711L32.13,46.518l-3.806-2.063L39.2,38.564z M26.066,47.904l4.22,2.288v3.174
			c0,1.137,0.921,2.058,2.058,2.058s2.058-0.921,2.058-2.058v-0.945l2.745,1.488v14.069l-11.082-6.003L26.066,47.904L26.066,47.904z
			 M62.747,35.939l-2.877-1.563l10.232-6.242l3.529,1.914L62.747,35.939z M62.751,24.155l3.159,1.711L55.681,32.11l-3.806-2.062
			L62.751,24.155z"/>
	</g>
	<g>
	</g>
	<g>
	</g>
	<g>
	</g>
	<g>
	</g>
	<g>
	</g>
	<g>
	</g>
	<g>
	</g>
	<g>
	</g>
	<g>
	</g>
	<g>
	</g>
	<g>
	</g>
	<g>
	</g>
	<g>
	</g>
	<g>
	</g>
	<g>
	</g>
</g>
</svg>
