<?xml version="1.0" standalone="no"?>
<!-- Generator: Adobe Fireworks 10, Export SVG Extension by Aaron Beall (http://fireworks.abeall.com) . Version: 0.6.1  -->
<!DOCTYPE svg PUBLIC "-//W3C//DTD SVG 1.1//EN" "http://www.w3.org/Graphics/SVG/1.1/DTD/svg11.dtd">
<svg id="003_anwendungen-Seite%201" viewBox="0 0 135 135" version="1.1"
	xmlns="http://www.w3.org/2000/svg" xmlns:xlink="http://www.w3.org/1999/xlink" xml:space="preserve"
	x="0px" y="0px" width="135px" height="135px"
>
	<g id="Hintergrund">
		<path d="M 33.8379 92.8223 C 43.041 97.124 52.2573 101.3975 61.4434 105.7344 C 65.3242 107.5664 69.1187 107.5566 72.9932 105.7285 C 82.0308 101.4658 91.0732 97.21 100.1558 93.043 C 104.9067 90.8633 107.3467 87.4072 107.1899 82.0713 C 107.0483 77.2432 107.1602 72.4082 107.1592 67.5762 C 107.1582 62.4102 107.0947 57.2441 107.1768 52.0791 C 107.2539 47.2139 105.1465 43.7715 100.7783 41.7168 C 91.2847 37.251 81.7842 32.7988 72.2725 28.3711 C 68.8999 26.8018 65.4741 26.8574 62.1157 28.4189 C 52.6021 32.8428 43.0947 37.2822 33.6064 41.7598 C 29.2612 43.8105 27.1304 47.2695 27.1523 52.1191 C 27.1973 62.1172 27.2295 72.1152 27.1406 82.1123 C 27.0952 87.1904 29.2939 90.6992 33.8379 92.8223 ZM 99.874 52.6963 C 100.5581 55.4121 100.1753 58.2461 100.2002 61.041 C 100.2622 67.8652 100.1685 74.6914 100.2451 81.5156 C 100.2739 84.0557 99.7261 86.0186 97.1699 87.1826 C 88.9937 90.9043 80.8677 94.7383 72.709 98.5 C 72.3057 98.6855 71.7773 98.5996 71.3579 98.6357 C 70.521 97.5225 70.7446 96.3193 70.7417 95.1787 C 70.7222 86.6885 70.8315 78.1973 70.6738 69.7109 C 70.6201 66.8174 71.5518 65.1934 74.2603 63.9961 C 81.8672 60.6328 89.3442 56.9766 96.8838 53.4609 C 97.7646 53.0508 98.6211 52.4531 99.874 52.6963 ZM 64.0293 34.7012 C 66.1255 33.709 68.1445 33.623 70.2559 34.627 C 78.209 38.4072 86.1787 42.1533 94.1323 45.9346 C 94.3755 46.0498 94.5034 46.4082 94.6924 46.6631 C 94.0835 48.0771 92.6094 48.2334 91.4556 48.7813 C 84.2495 52.2021 76.9976 55.5264 69.7944 58.9541 C 68.2109 59.707 66.8687 60.0186 65.123 59.1787 C 57.0371 55.29 48.8735 51.5635 40.7495 47.7539 C 40.3276 47.5557 40.0161 47.123 39.1797 46.377 C 47.8018 42.3301 55.9263 38.5391 64.0293 34.7012 Z" fill="#ffffff"/>
	</g>
	<g id="Ebene%201">
	</g>
</svg>