<?xml version="1.0" standalone="no"?>
<!-- Generator: Adobe Fireworks 10, Export SVG Extension by Aaron Beall (http://fireworks.abeall.com) . Version: 0.6.1  -->
<!DOCTYPE svg PUBLIC "-//W3C//DTD SVG 1.1//EN" "http://www.w3.org/Graphics/SVG/1.1/DTD/svg11.dtd">
<svg id="002a_thinclient-Seite%201" viewBox="0 0 135 135" version="1.1"
	xmlns="http://www.w3.org/2000/svg" xmlns:xlink="http://www.w3.org/1999/xlink" xml:space="preserve"
	x="0px" y="0px" width="135px" height="135px"
>
	<g id="Hintergrund">
		<path d="M 67.0627 96.4501 C 81.387 96.4501 95.7114 96.4511 110.0363 96.4491 C 113.8669 96.4481 117.7005 96.5194 121.5278 96.3993 C 124.078 96.3193 124.5281 95.6925 123.9091 93.3434 C 122.8126 89.1822 120.2297 86.2913 116.1086 84.9449 C 110.4781 83.1055 105.2214 85.063 101.7652 90.14 C 101.0466 91.1954 100.8982 92.9558 99.2911 93.0222 C 95.9755 93.1598 92.5651 93.4996 89.3564 92.8943 C 86.9917 92.4481 87.7044 89.2232 86.5489 87.4824 C 86.2741 87.0684 86.0871 86.5969 85.8523 86.1556 C 83.8908 82.466 83.8879 82.465 86.5733 79.4989 C 87.02 79.0058 87.5321 78.5684 87.9534 78.0549 C 90.0271 75.5301 92.0179 74.4795 95.5972 76.0973 C 100.7727 78.4356 106.5532 76.108 109.5398 71.4607 C 112.7427 66.4784 112.0744 60.0238 107.9235 55.85 C 103.937 51.8411 97.7715 51.1782 92.7741 54.2205 C 88.3054 56.9405 85.8001 62.9939 87.9319 68.1431 C 89.3862 71.6559 88.548 73.7063 85.9661 75.7976 C 84.936 76.6314 84.0212 77.6233 83.1347 78.6153 C 82.1451 79.7234 81.265 80.2673 79.7995 79.1874 C 77.2278 77.2924 74.289 76.1129 71.1774 75.369 C 70.3934 75.1815 69.2838 75.1239 69.1691 74.1837 C 68.7649 70.8827 68.6658 67.5524 69.2892 64.268 C 69.3741 63.8198 70.2607 63.4762 70.8255 63.1774 C 71.8496 62.6355 72.9812 62.2723 73.9449 61.6445 C 78.7968 58.4871 80.9013 52.9825 79.3211 47.7776 C 77.6574 42.2974 72.9388 38.7533 67.4429 38.8568 C 61.7797 38.9632 57.143 42.6235 55.7981 48.05 C 54.3932 53.7196 56.5562 59.5591 61.993 61.8994 C 65.5542 63.4312 66.245 65.5235 65.9315 68.7582 C 65.8515 69.5832 65.8334 70.4336 65.935 71.2537 C 66.2503 73.7902 65.458 75.3348 62.673 75.6814 C 60.5187 75.9489 58.4069 76.7007 56.6612 77.9973 C 53.4993 80.3473 53.3841 79.7986 50.4405 77.1781 C 47.4075 74.4776 45.7047 72.2095 47.5388 67.5495 C 49.943 61.4376 45.9615 55.1587 39.6148 53 C 33.8402 51.0356 27.0727 53.9852 24.5806 59.5532 C 21.9308 65.4728 24.2565 72.355 30.0135 75.4188 C 33.2593 77.1459 36.6277 77.4964 40.1254 76.07 C 41.2975 75.5916 42.4428 74.4024 43.8384 75.2801 C 46.5629 76.9926 48.645 79.3905 50.3589 82.0696 C 51.0355 83.127 46.1978 93.1432 45.0081 93.0827 C 40.534 92.8542 35.9892 94.7063 32.4377 89.0621 C 27.6864 81.5121 16.1538 83.0606 12.2187 91.0373 C 10.0224 95.4894 10.5911 96.4384 15.5939 96.4433 C 32.7502 96.4608 49.9064 96.4501 67.0627 96.4501 Z" fill="#ffffff"/>
	</g>
	<g id="Ebene%201">
	</g>
</svg>