<?xml version="1.0" encoding="utf-8"?>
<!-- Generator: Adobe Illustrator 16.0.3, SVG Export Plug-In . SVG Version: 6.00 Build 0)  -->
<!DOCTYPE svg PUBLIC "-//W3C//DTD SVG 1.1//EN" "http://www.w3.org/Graphics/SVG/1.1/DTD/svg11.dtd">
<svg version="1.1" id="Ebene_1" xmlns="http://www.w3.org/2000/svg" xmlns:xlink="http://www.w3.org/1999/xlink" x="0px" y="0px"
	 width="80px" height="80px" viewBox="0 0 80 80" enable-background="new 0 0 80 80" xml:space="preserve">
<path fill="#509DC9" d="M75.618,66.035l-7.819-12.164V38.257c0-11.674-7.093-21.705-17.155-25.933v-1.682
	C50.644,4.774,45.867,0,40,0c-5.868,0-10.642,4.774-10.642,10.643v1.681c-10.062,4.228-17.156,14.26-17.156,25.934v15.614
	L4.383,66.033c-0.545,0.848-0.583,1.925-0.101,2.809c0.483,0.884,1.408,1.434,2.416,1.434h20.679C28.809,75.861,33.883,80,39.908,80
	h0.184c6.025,0,11.1-4.139,12.532-9.725h20.679c1.007,0,1.933-0.55,2.415-1.432C76.2,67.96,76.163,66.883,75.618,66.035z
	 M34.862,10.643c0-2.833,2.305-5.138,5.138-5.138c2.833,0,5.139,2.305,5.139,5.138v0.024c-1.666-0.316-3.384-0.483-5.139-0.483
	s-3.472,0.167-5.138,0.483V10.643z M40.092,74.496h-0.184c-2.947,0-5.499-1.727-6.7-4.221h13.584
	C45.592,72.77,43.04,74.496,40.092,74.496z M11.739,64.771l5.53-8.603c0.285-0.444,0.438-0.962,0.438-1.489V38.257
	c0-12.443,10-22.568,22.293-22.568c12.294,0,22.293,10.125,22.293,22.568v16.422c0,0.527,0.152,1.045,0.437,1.489l5.53,8.603H11.739
	z"/>
</svg>
