<?xml version="1.0" encoding="UTF-8"?><svg id="Ebene_2" xmlns="http://www.w3.org/2000/svg" viewBox="0 0 30 30"><defs><style>.cls-1{fill:none;}.cls-1,.cls-2{stroke:#fff;stroke-linecap:round;stroke-linejoin:round;stroke-width:1.5px;}.cls-2{fill:#fff;}</style></defs><polygon class="cls-1" points="5.44 6.65 5.44 22.59 25.44 22.59 25.44 8.79 13.29 8.79 10.27 6.62 5.44 6.65"/><polyline class="cls-1" points="15.67 11.73 14.68 11.73 14.31 13.44 12.76 12.85 11.9 14.5 13.29 15.58 11.9 16.92 12.54 18.15 14.31 17.56 14.84 19.38 15.67 19.38"/><polyline class="cls-1" points="15.67 11.73 16.65 11.73 17.03 13.44 18.58 12.85 19.43 14.5 18.04 15.58 19.43 16.92 18.79 18.15 17.03 17.56 16.49 19.38 15.67 19.38"/><circle class="cls-2" cx="15.66" cy="15.6" r=".55"/></svg>
