<?xml version="1.0" standalone="no"?>
<!-- Generator: Adobe Fireworks 10, Export SVG Extension by Aaron Beall (http://fireworks.abeall.com) . Version: 0.6.1  -->
<!DOCTYPE svg PUBLIC "-//W3C//DTD SVG 1.1//EN" "http://www.w3.org/Graphics/SVG/1.1/DTD/svg11.dtd">
<svg id="001_dashboard-Seite%201" viewBox="0 0 135 135" version="1.1"
	xmlns="http://www.w3.org/2000/svg" xmlns:xlink="http://www.w3.org/1999/xlink" xml:space="preserve"
	x="0px" y="0px" width="135px" height="135px"
>
	<g id="Hintergrund">
		<path d="M 67.6699 104.9492 C 56.1836 104.9492 44.6953 104.8223 33.2129 105.0264 C 29.7783 105.0879 27.6807 103.7764 25.7441 101.1455 C 11.1611 81.3252 16.1777 53.7891 37.1074 39.1396 C 56.583 25.5088 87.5244 26.125 106.0498 46.2178 C 120.1465 61.5068 121.5508 84.6631 109.2168 101.3877 C 107.3682 103.8965 105.3271 105.0566 102.1279 105.0117 C 90.6436 104.8506 79.1563 104.9482 67.6699 104.9492 ZM 67.3623 102.249 C 78.5273 102.249 89.6934 102.1611 100.8564 102.3076 C 103.8564 102.3467 105.7725 101.3018 107.5049 98.9043 C 118.165 84.1572 117.5059 63.5098 105.4668 49.7891 C 92.625 35.1553 76.4824 29.748 57.3262 33.4922 C 48.2793 35.2607 40.2832 39.1094 33.5225 45.4268 C 18.2881 59.6621 15.7275 82.1797 27.3457 98.6348 C 29.1543 101.1973 31.1445 102.3691 34.3682 102.3174 C 45.3633 102.1416 56.3643 102.25 67.3623 102.249 Z" fill="#ffffff"/>
		<path d="M 67.2842 95.5918 C 66.5859 95.4551 65.25 95.3193 63.9951 94.9258 C 59.418 93.4902 56.124 89.2793 56.1543 85.043 C 56.1855 80.8213 59.5459 76.2656 64.3818 75.6719 C 69.1953 75.082 72.6299 72.5127 76.2773 69.957 C 81.4492 66.333 86.6035 62.6807 91.8535 59.1748 C 93.124 58.3262 94.7754 56.6211 96.2666 58.0635 C 98.1387 59.873 96.0283 61.4375 94.9863 62.7051 C 90.6592 67.9697 86.2041 73.1279 81.7422 78.2793 C 79.9736 80.3223 78.7461 82.2793 78.7012 85.3086 C 78.6152 91.1631 73.748 95.4316 67.2842 95.5918 ZM 67.666 93.0371 C 72.6914 92.8965 76.2793 89.3867 75.8203 84.6689 C 75.542 81.8047 76.6025 79.9658 78.3184 78.04 C 81.5215 74.4463 84.6211 70.7588 87.7158 67.0703 C 88.0527 66.6689 88.8916 66.0957 88.0469 65.4766 C 87.8271 65.3154 87.1211 65.6299 86.752 65.8887 C 82.8115 68.6553 78.8809 71.4365 74.9736 74.25 C 72.2705 76.1963 69.666 78.0088 65.9951 77.9658 C 62.7441 77.9277 60.3682 79.957 59.3672 83.1084 C 58.498 85.8418 59.1777 88.4033 61.1777 90.4746 C 63.0166 92.377 65.4414 92.9238 67.666 93.0371 Z" fill="#ffffff"/>
		<path d="M 29.8525 78.0947 C 28.2969 77.9863 26.9648 77.9619 25.6621 77.7549 C 25.3232 77.7012 24.8535 77.083 24.8447 76.7139 C 24.834 76.3291 25.2559 75.6396 25.5762 75.584 C 28.2002 75.126 30.8535 75.0889 33.4834 75.5244 C 33.835 75.582 34.3037 76.2266 34.3232 76.6191 C 34.3418 76.998 33.8994 77.6865 33.5723 77.7441 C 32.2754 77.9727 30.9453 78.0068 29.8525 78.0947 Z" fill="#ffffff"/>
		<path d="M 105.3281 78.1338 C 103.6963 77.6865 100.9756 78.8799 100.9541 76.8535 C 100.9258 74.3076 103.752 75.3896 105.3291 75.3682 C 107.0049 75.3447 110.0791 74.4746 110.0547 76.5195 C 110.0225 79.2559 106.8633 77.4287 105.3281 78.1338 Z" fill="#ffffff"/>
		<path d="M 38.1162 48.6299 C 38.5068 48.7969 39.0313 48.8936 39.3789 49.1934 C 40.8799 50.4883 42.3594 51.8105 43.7793 53.1914 C 44.3623 53.7588 44.9375 54.5117 44.0352 55.2949 C 43.4678 55.7881 42.7705 55.7266 42.2422 55.248 C 40.5332 53.7012 38.8398 52.1328 37.2207 50.4932 C 36.9863 50.2559 37.0996 49.5596 37.2266 49.127 C 37.2891 48.915 37.752 48.8213 38.1162 48.6299 Z" fill="#ffffff"/>
		<path d="M 69.0742 42.3438 C 68.6816 43.8018 69.8154 46.335 67.376 46.252 C 65.5566 46.1904 66.0957 43.8398 66.1602 42.458 C 66.2383 40.7715 65.3418 37.8477 67.5107 37.8135 C 69.7939 37.7773 68.625 40.7344 69.0742 42.3438 Z" fill="#ffffff"/>
		<path d="M 91.6953 55.7168 C 90.7686 55.418 90.2607 54.6719 90.8408 53.8701 C 92.3105 51.8369 94.1914 50.1904 96.416 48.9961 C 96.832 48.7725 97.4258 48.832 97.7275 49.3379 C 97.8799 49.5938 98.0049 49.9756 97.9297 50.2393 C 97.5146 51.6914 92.9531 55.6797 91.6953 55.7168 Z" fill="#ffffff"/>
	</g>
	<g id="Ebene%201">
	</g>
</svg>