<?xml version="1.0" standalone="no"?>
<!-- Generator: Adobe Fireworks 10, Export SVG Extension by Aaron Beall (http://fireworks.abeall.com) . Version: 0.6.1  -->
<!DOCTYPE svg PUBLIC "-//W3C//DTD SVG 1.1//EN" "http://www.w3.org/Graphics/SVG/1.1/DTD/svg11.dtd">
<svg id="004_gereat-Seite%201" viewBox="0 0 135 135" version="1.1"
	xmlns="http://www.w3.org/2000/svg" xmlns:xlink="http://www.w3.org/1999/xlink" xml:space="preserve"
	x="0px" y="0px" width="135px" height="135px"
>
	<g id="Hintergrund">
		<path d="M 30.3415 92.2882 C 37.997 92.3312 45.6544 92.2492 53.309 92.3341 C 56.2516 92.3673 56.5065 92.8057 56.5114 96.0247 C 56.5162 99.2729 56.3395 99.518 53.4124 99.7865 C 51.4919 99.9622 48.7885 99.4575 49.0804 102.407 C 49.3489 105.1144 52.0514 104.5423 53.9514 104.554 C 62.7716 104.6077 71.5928 104.5891 80.4141 104.5637 C 81.5681 104.5598 82.7466 104.4778 83.8665 104.222 C 84.9004 103.9867 85.6063 103.2359 85.5526 102.0682 C 85.4998 100.9152 84.752 100.2073 83.7141 100.015 C 82.5796 99.8051 81.3992 99.8383 80.2383 99.7836 C 79.387 99.7435 78.601 99.6283 78.1275 98.776 C 76.4306 95.7259 78.2915 92.3468 81.7995 92.3185 C 89.289 92.2589 96.7785 92.3341 104.268 92.2882 C 110.1964 92.2521 111.7039 90.7817 111.7468 84.951 C 111.8024 77.4625 111.7614 69.972 111.7614 62.4825 C 111.7604 53.8282 111.822 45.173 111.7322 36.5187 C 111.6882 32.3361 109.8342 30.4439 105.7462 30.0309 C 104.5922 29.9147 103.4177 29.9909 102.2529 29.9909 C 90.6022 29.9889 78.9515 29.9889 67.3008 29.9899 C 54.9853 29.9909 42.6688 29.943 30.3532 30.0114 C 24.3898 30.0436 22.6313 31.8616 22.6216 37.7743 C 22.5942 53.4191 22.5923 69.064 22.6226 84.7089 C 22.6353 90.895 24.0324 92.254 30.3415 92.2882 ZM 27.6019 38.9029 C 27.6107 34.9273 27.68 34.8745 31.8226 34.8648 C 43.816 34.8365 55.8093 34.855 67.8037 34.856 C 79.4641 34.856 91.1245 34.8374 102.785 34.8667 C 106.8202 34.8775 106.8768 34.9331 106.8846 38.9937 C 106.91 53.8194 106.911 68.6452 106.8837 83.4709 C 106.8768 87.4866 106.8163 87.553 102.6961 87.5569 C 79.0424 87.5803 55.3885 87.5813 31.7338 87.5578 C 27.6712 87.553 27.6078 87.4807 27.6 83.3791 C 27.5717 68.5544 27.5707 53.7286 27.6019 38.9029 Z" fill="#ffffff"/>
	</g>
	<g id="Ebene%201">
	</g>
</svg>