<?xml version="1.0" encoding="utf-8"?>
<!-- Generator: Adobe Illustrator 16.0.3, SVG Export Plug-In . SVG Version: 6.00 Build 0)  -->
<!DOCTYPE svg PUBLIC "-//W3C//DTD SVG 1.1//EN" "http://www.w3.org/Graphics/SVG/1.1/DTD/svg11.dtd">
<svg version="1.1" id="Ebene_1" xmlns="http://www.w3.org/2000/svg" xmlns:xlink="http://www.w3.org/1999/xlink" x="0px" y="0px"
	 width="80px" height="80px" viewBox="0 0 80 80" enable-background="new 0 0 80 80" xml:space="preserve">
<g>
	<path fill="#fff" d="M75.656,6.73V6.613h-0.392H4.697H4.305V6.73C1.996,6.89,0.273,8.728,0,10.956v0.393v46.5
		c0,0.901,0.234,1.662,0.626,2.347c0.901,1.585,2.231,2.388,4.071,2.388H30.45v6.496h-4.892c-1.213,0-2.152,0.943-2.152,2.154
		c0,1.21,0.939,2.153,2.152,2.153h28.845c1.213,0,2.192-0.943,2.192-2.153c0-1.211-0.979-2.154-2.192-2.154h-4.892v-6.496h25.753
		c1.84,0,3.183-0.803,4.07-2.388C79.738,59.477,80,58.709,80,57.849v-46.5v-0.392C79.726,8.728,77.887,6.89,75.656,6.73z
		 M75.656,11.349v46.5c0,0.276-0.117,0.394-0.392,0.394H4.697c-0.274,0-0.392-0.117-0.392-0.394v-46.5v-0.392h71.35L75.656,11.349
		L75.656,11.349z"/>
</g>
</svg>
