<?xml version="1.0" encoding="utf-8"?>
<!-- Generator: Adobe Illustrator 16.0.3, SVG Export Plug-In . SVG Version: 6.00 Build 0)  -->
<!DOCTYPE svg PUBLIC "-//W3C//DTD SVG 1.1//EN" "http://www.w3.org/Graphics/SVG/1.1/DTD/svg11.dtd">
<svg version="1.1" id="Ebene_1" xmlns="http://www.w3.org/2000/svg" xmlns:xlink="http://www.w3.org/1999/xlink" x="0px" y="0px"
	 width="80px" height="80px" viewBox="0 0 80 80" enable-background="new 0 0 80 80" xml:space="preserve">
<g>
	<g>
		<g>
			<path fill="#fff" d="M79.169,44.426L68.907,12.864c-0.59-1.84-1.684-3.333-3.281-4.479c-1.597-1.146-3.351-1.718-5.26-1.718
				H19.636c-1.911,0-3.664,0.572-5.261,1.718c-1.598,1.146-2.691,2.639-3.281,4.479L0.833,44.426C0.278,46.163,0,47.465,0,48.333V65
				c0,2.291,0.816,4.252,2.447,5.885c1.633,1.632,3.594,2.448,5.886,2.448h63.334c2.292,0,4.253-0.816,5.886-2.448
				C79.185,69.252,80,67.291,80,65V48.333C80,47.465,79.725,46.163,79.169,44.426z M17.449,14.895
				c0.139-0.451,0.417-0.824,0.833-1.119c0.417-0.295,0.868-0.442,1.354-0.442h40.729c0.486,0,0.938,0.147,1.354,0.442
				c0.417,0.295,0.694,0.668,0.833,1.119l8.177,25.104H9.271L17.449,14.895z M73.335,65c0,0.45-0.166,0.841-0.496,1.171
				c-0.331,0.33-0.72,0.494-1.17,0.494H8.333c-0.452,0-0.842-0.164-1.172-0.494S6.667,65.45,6.667,65V48.333
				c0-0.452,0.165-0.841,0.495-1.173c0.33-0.328,0.72-0.493,1.172-0.493h63.335c0.45,0,0.84,0.164,1.171,0.493
				c0.33,0.332,0.495,0.721,0.495,1.173L73.335,65L73.335,65z"/>
			<path fill="#fff" d="M50,52.499c-1.146,0-2.127,0.407-2.943,1.224c-0.816,0.816-1.225,1.798-1.225,2.943
				s0.408,2.127,1.225,2.943s1.797,1.223,2.943,1.223c1.146,0,2.128-0.406,2.943-1.223c0.816-0.815,1.225-1.797,1.225-2.943
				c0-1.146-0.408-2.128-1.225-2.943C52.127,52.907,51.147,52.499,50,52.499z"/>
			<path fill="#fff" d="M63.334,52.499c-1.146,0-2.128,0.408-2.944,1.224c-0.815,0.816-1.223,1.798-1.223,2.943
				s0.408,2.127,1.223,2.943c0.816,0.816,1.797,1.223,2.944,1.223c1.145,0,2.127-0.406,2.943-1.223
				c0.815-0.815,1.225-1.797,1.225-2.943c0-1.146-0.408-2.128-1.225-2.943S64.479,52.499,63.334,52.499z"/>
		</g>
	</g>
	<g>
	</g>
	<g>
	</g>
	<g>
	</g>
	<g>
	</g>
	<g>
	</g>
	<g>
	</g>
	<g>
	</g>
	<g>
	</g>
	<g>
	</g>
	<g>
	</g>
	<g>
	</g>
	<g>
	</g>
	<g>
	</g>
	<g>
	</g>
	<g>
	</g>
</g>
</svg>
