<?xml version="1.0" encoding="utf-8"?>
<!-- Generator: Adobe Illustrator 16.0.3, SVG Export Plug-In . SVG Version: 6.00 Build 0)  -->
<!DOCTYPE svg PUBLIC "-//W3C//DTD SVG 1.1//EN" "http://www.w3.org/Graphics/SVG/1.1/DTD/svg11.dtd">
<svg version="1.1" id="Ebene_1" xmlns="http://www.w3.org/2000/svg" xmlns:xlink="http://www.w3.org/1999/xlink" x="0px" y="0px"
	 width="80px" height="80px" viewBox="0 0 80 80" enable-background="new 0 0 80 80" xml:space="preserve">
<g>
	<g>
		<g>
			<path fill="#fff" d="M78.626,38.262c-0.162-0.204-4.038-5.067-10.683-9.949C59.063,21.789,49.4,18.34,40,18.34
				c-9.4,0-19.062,3.448-27.943,9.973c-6.645,4.882-10.521,9.745-10.683,9.949L0,40l1.375,1.738
				c0.162,0.204,4.038,5.066,10.683,9.949C20.938,58.211,30.6,61.66,40,61.66c9.4,0,19.063-3.449,27.943-9.973
				c6.646-4.883,10.521-9.745,10.683-9.949L80,40L78.626,38.262z M40,55.174c-8.367,0-15.174-6.807-15.174-15.174
				c0-1.311,0.167-2.583,0.481-3.797l-3.464-0.583c-0.339,1.405-0.52,2.872-0.52,4.38c0,5.404,2.309,10.279,5.991,13.693
				c-4.74-1.751-8.77-4.207-11.811-6.43C11.735,44.512,8.911,41.729,7.301,40c1.611-1.729,4.434-4.512,8.202-7.264
				c3.042-2.222,7.071-4.678,11.811-6.429l2.324,2.62c2.714-2.541,6.359-4.1,10.362-4.1c8.367,0,15.174,6.807,15.174,15.174
				C55.174,48.367,48.367,55.174,40,55.174z M64.497,47.264c-3.042,2.223-7.071,4.679-11.811,6.43
				c3.681-3.414,5.99-8.289,5.99-13.693c0-5.405-2.309-10.28-5.99-13.693c4.739,1.751,8.769,4.208,11.811,6.429
				c3.768,2.752,6.592,5.536,8.202,7.264C71.088,41.729,68.265,44.512,64.497,47.264z"/>
			<path fill="#fff" d="M30.344,37.051c-0.285,0.933-0.439,1.923-0.439,2.95c0,5.576,4.52,10.095,10.095,10.095
				S50.095,45.576,50.095,40c0-5.575-4.52-10.095-10.095-10.095c-2.715,0-5.179,1.074-6.994,2.818l4.979,5.613L30.344,37.051z"/>
		</g>
	</g>
	<g>
	</g>
	<g>
	</g>
	<g>
	</g>
	<g>
	</g>
	<g>
	</g>
	<g>
	</g>
	<g>
	</g>
	<g>
	</g>
	<g>
	</g>
	<g>
	</g>
	<g>
	</g>
	<g>
	</g>
	<g>
	</g>
	<g>
	</g>
	<g>
	</g>
</g>
</svg>
