<?xml version="1.0" encoding="utf-8"?>
<!-- Generator: Adobe Illustrator 16.0.3, SVG Export Plug-In . SVG Version: 6.00 Build 0)  -->
<!DOCTYPE svg PUBLIC "-//W3C//DTD SVG 1.1//EN" "http://www.w3.org/Graphics/SVG/1.1/DTD/svg11.dtd">
<svg version="1.1" id="Ebene_1" xmlns="http://www.w3.org/2000/svg" xmlns:xlink="http://www.w3.org/1999/xlink" x="0px" y="0px"
	 width="80px" height="80px" viewBox="0 0 80 80" enable-background="new 0 0 80 80" xml:space="preserve">
<g>
	<g>
		<g>
			<path fill="#509DC9" d="M65.196,21.795H36.093l-5.789-6.881c-0.194-0.234-0.486-0.365-0.791-0.355H6.033
				c-3.585,0.026-6.477,2.939-6.477,6.524V63.4c0.004,3.598,2.919,6.513,6.517,6.517h59.123c3.597-0.004,6.512-2.919,6.516-6.517
				V28.312C71.708,24.714,68.793,21.799,65.196,21.795z"/>
		</g>
	</g>
	<g>
		<g>
			<path fill="#509DC9" d="M73.745,13.364H44.634l-5.789-6.88c-0.195-0.234-0.487-0.366-0.791-0.356H14.582
				c-3.253,0.005-6.003,2.408-6.445,5.63h21.408c1.122-0.003,2.188,0.493,2.91,1.353l4.943,5.875h27.798
				c5.142,0.009,9.307,4.175,9.316,9.316v33.121c3.26-0.406,5.707-3.176,5.71-6.461v-35.09
				C80.213,16.294,77.323,13.391,73.745,13.364z"/>
		</g>
	</g>
</g>
</svg>
