<?xml version="1.0" standalone="no"?>
<!-- Generator: Adobe Fireworks 10, Export SVG Extension by Aaron Beall (http://fireworks.abeall.com) . Version: 0.6.1  -->
<!DOCTYPE svg PUBLIC "-//W3C//DTD SVG 1.1//EN" "http://www.w3.org/Graphics/SVG/1.1/DTD/svg11.dtd">
<svg id="008_filebrowser-Seite%201" viewBox="0 0 135 135" version="1.1"
	xmlns="http://www.w3.org/2000/svg" xmlns:xlink="http://www.w3.org/1999/xlink" xml:space="preserve"
	x="0px" y="0px" width="135px" height="135px"
>
	<g id="Hintergrund">
		<path d="M 79.9746 57.4365 C 79.9663 50.417 79.9663 50.4092 72.7104 50.4053 C 61.2173 50.3994 49.7241 50.4258 38.231 50.3906 C 34.4546 50.3789 34.4551 50.3105 33.9565 46.7402 C 33.4966 43.4453 33.2539 43.1582 29.915 43.0586 C 26.9194 42.9688 23.9185 42.9883 20.9214 43.0488 C 16.8052 43.1309 16.3848 43.4922 16.3638 47.7178 C 16.3057 59.377 16.3066 71.0371 16.3599 82.6963 C 16.3789 86.9326 16.6616 87.1953 20.9614 87.2207 C 29.9556 87.2764 38.9507 87.2373 47.9453 87.2373 C 57.1064 87.2363 66.2681 87.2773 75.4287 87.2188 C 79.6333 87.1924 79.8701 86.8877 79.9634 82.6025 C 80.0176 80.1045 80.0347 77.6035 79.9648 75.1074 C 79.9102 73.1396 80.4214 71.9346 82.7227 72.0127 C 85.8838 72.1182 89.0518 72.0781 92.2158 72.0244 C 93.9136 71.9951 94.6089 72.7588 94.6025 74.4102 C 94.5801 80.0732 94.605 85.7363 94.5913 91.3994 C 94.5884 92.582 94.5635 93.9717 92.917 93.8809 C 91.2886 93.792 88.8213 95.0156 88.376 92.3535 C 87.8853 89.4199 86.1602 88.9912 83.7734 89.0703 C 82.2759 89.1201 80.7715 89.0098 79.2773 89.0977 C 76.1567 89.2832 75.4751 89.8516 75.4355 93.0078 C 75.3418 100.502 75.3413 108 75.4473 115.4941 C 75.4907 118.5488 75.9961 119.0635 78.9434 119.082 C 90.769 119.1543 102.5957 119.1563 114.4219 119.0811 C 117.4204 119.0615 117.8472 118.6006 117.9033 115.4844 C 118.0107 109.4902 118.0151 103.4902 117.8945 97.4961 C 117.8354 94.5547 117.2749 94.0723 114.2783 93.9971 C 110.1167 93.8916 105.9492 93.8945 101.7871 93.9893 C 99.6748 94.0371 98.7656 93.2754 98.8047 91.1064 C 98.8853 86.6104 98.8179 82.1123 98.8184 77.6152 C 98.8188 68.1211 98.876 58.626 98.7896 49.1318 C 98.7681 46.7754 99.5552 45.8408 101.96 45.9316 C 105.6191 46.0703 109.2876 45.9961 112.9517 45.9551 C 117.5596 45.9033 117.8721 45.6387 117.9287 41.2188 C 117.9946 36.0557 117.9844 30.8916 117.9331 25.7285 C 117.8867 20.999 117.6177 20.7314 112.7295 20.6982 C 105.7339 20.6504 98.7378 20.6738 91.7422 20.6934 C 89.9761 20.6982 88.3828 20.6543 88.1792 18.2813 C 88.0156 16.3809 86.624 15.9238 84.959 15.9355 C 83.127 15.9482 81.2925 15.876 79.4629 15.9414 C 75.9307 16.0674 75.4756 16.4326 75.4297 20.0566 C 75.3403 27.2188 75.3452 34.3818 75.4233 41.5439 C 75.4658 45.46 75.9131 45.8721 79.7241 45.9463 C 83.7202 46.0244 87.7212 46.0518 91.7153 45.9365 C 93.8828 45.873 94.7041 46.708 94.6309 48.8379 C 94.5342 51.666 94.7451 54.5078 94.5811 57.3301 C 94.3823 60.7588 96.2134 65.3467 93.5938 67.3125 C 90.9727 69.2793 86.5093 67.7188 82.8613 67.916 C 80.6602 68.0352 79.9043 66.9971 79.9653 64.9316 C 80.0386 62.4346 79.9775 59.9346 79.9746 57.4365 ZM 75.7554 79.3848 C 75.7251 82.958 75.6504 83.0371 72.168 83.0596 C 64.1895 83.1104 56.2104 83.0752 48.2314 83.0742 C 40.2529 83.0742 32.2734 83.1094 24.2949 83.0576 C 20.7637 83.0342 20.6724 82.9541 20.6528 79.4473 C 20.6011 69.9727 20.5977 60.4971 20.6533 51.0225 C 20.6758 47.2539 20.7695 47.252 24.6636 47.1797 C 25.4946 47.1641 26.3276 47.2207 27.1567 47.1797 C 29.1382 47.082 29.5918 48.2021 29.7842 49.9531 C 30.3057 54.7051 30.3809 54.7402 35.1943 54.75 C 47.1626 54.7764 59.1309 54.7441 71.0991 54.7656 C 75.7144 54.7744 75.7456 54.8125 75.7656 59.4375 C 75.7944 66.0869 75.8125 72.7363 75.7554 79.3848 ZM 83.5386 41.7432 C 79.917 41.6904 79.7622 41.5723 79.7134 38.2148 C 79.6382 33.0693 79.6826 27.9219 79.7134 22.7744 C 79.7202 21.6465 79.5791 20.332 81.2383 20.126 C 82.6948 19.9453 83.9038 20.1211 84.0439 21.9883 C 84.2495 24.7207 86.1758 24.9404 88.3311 24.9316 C 95.4702 24.9023 102.6094 24.8945 109.7485 24.9355 C 113.6304 24.958 113.668 25.0098 113.7324 28.7109 C 113.7871 31.8643 113.8057 35.0215 113.7231 38.1738 C 113.6323 41.6299 113.5679 41.6934 109.9365 41.7432 C 105.4546 41.8057 100.9712 41.7588 96.4888 41.7588 C 92.1719 41.7588 87.8545 41.8066 83.5386 41.7432 ZM 109.4883 98.084 C 113.647 98.1035 113.6787 98.1416 113.7344 102.1338 C 113.7803 105.4629 113.6655 108.7949 113.7651 112.1211 C 113.8291 114.2588 113.0039 115.0742 110.8491 115.0283 C 106.0239 114.9258 101.1953 114.9961 96.3682 114.9932 C 91.707 114.9912 87.0459 114.9482 82.3857 115.0117 C 80.5176 115.0381 79.6636 114.3574 79.6841 112.415 C 79.7422 106.9219 79.6973 101.4287 79.7119 95.9355 C 79.7153 94.7373 79.812 93.5342 81.3804 93.3301 C 82.9629 93.123 83.9414 93.6934 84.0674 95.4189 C 84.2529 97.9531 86.0513 98.0898 88.0151 98.082 C 95.1729 98.0566 102.3311 98.0518 109.4883 98.084 Z" fill="#ffffff"/>
	</g>
	<g id="Ebene%201">
	</g>
</svg>