<?xml version="1.0" encoding="UTF-8"?><svg id="Ebene_2" xmlns="http://www.w3.org/2000/svg" viewBox="0 0 30 30"><defs><style>.cls-1{fill:none;stroke:#fff;stroke-linecap:round;stroke-linejoin:round;stroke-width:1.5px;}</style></defs><polyline class="cls-1" points="15 4.74 15 8.24 8.51 8.24 8.51 21.31 15 21.31 15 24.74"/><line class="cls-1" x1="11.76" y1="24.74" x2="11.76" y2="21.31"/><line class="cls-1" x1="18.01" y1="24.74" x2="18.01" y2="21.31"/><line class="cls-1" x1="11.76" y1="8.17" x2="11.76" y2="4.74"/><line class="cls-1" x1="18.01" y1="8.17" x2="18.01" y2="4.74"/><line class="cls-1" x1="5.09" y1="11.6" x2="8.51" y2="11.6"/><line class="cls-1" x1="5.09" y1="14.79" x2="8.51" y2="14.79"/><line class="cls-1" x1="5.09" y1="17.99" x2="8.51" y2="17.99"/><polyline class="cls-1" points="15.17 8.24 21.66 8.24 21.66 21.31 15.17 21.31"/><line class="cls-1" x1="25.08" y1="11.6" x2="21.66" y2="11.6"/><line class="cls-1" x1="25.08" y1="14.79" x2="21.66" y2="14.79"/><line class="cls-1" x1="25.08" y1="17.99" x2="21.66" y2="17.99"/></svg>
