<?xml version="1.0" standalone="no"?>
<!-- Generator: Adobe Fireworks 10, Export SVG Extension by Aaron Beall (http://fireworks.abeall.com) . Version: 0.6.1  -->
<!DOCTYPE svg PUBLIC "-//W3C//DTD SVG 1.1//EN" "http://www.w3.org/Graphics/SVG/1.1/DTD/svg11.dtd">
<svg id="007_hardwaretyp-Seite%201" viewBox="0 0 135 135" version="1.1"
	xmlns="http://www.w3.org/2000/svg" xmlns:xlink="http://www.w3.org/1999/xlink" xml:space="preserve"
	x="0px" y="0px" width="135px" height="135px"
>
	<g id="Hintergrund">
		<path d="M 107.5864 71.8047 C 104.1514 61.3672 100.833 50.8916 97.3481 40.4707 C 95.542 35.0713 92.6807 33.0518 86.9097 33.0234 C 73.7456 32.958 60.5811 32.9541 47.4175 33.0254 C 41.7246 33.0566 38.8477 35.1768 37.0181 40.5547 C 34.874 46.8584 33.1841 53.335 30.7349 59.5137 C 26.7275 69.6211 25.0879 79.9893 25.9268 90.79 C 25.9395 90.9561 25.9277 91.124 25.9292 91.29 C 26.0132 98.8945 28.9663 101.9209 36.502 101.9541 C 46.6665 101.998 56.8315 101.9648 66.9961 101.9629 C 77.6606 101.9619 88.3262 102.0342 98.9897 101.9336 C 105.0796 101.877 108.2163 98.7471 108.417 92.709 C 108.5498 88.7139 108.4575 84.7109 108.4546 80.7119 C 108.4521 77.7168 108.5483 74.7275 107.5864 71.8047 ZM 37.0396 62.6338 C 39.0713 56.2969 41.2095 49.9941 43.168 43.6348 C 43.9663 41.0449 45.3164 39.8857 48.1772 39.9141 C 60.998 40.0381 73.8213 39.9941 86.6431 39.9434 C 88.7134 39.9346 90.188 40.4834 90.8589 42.5908 C 93.3315 50.3574 95.8364 58.1143 98.3042 65.8828 C 98.3872 66.1436 98.1997 66.4912 98.1265 66.8555 C 96.8047 67.7949 95.2563 67.3809 93.8066 67.3828 C 76.1553 67.4141 58.5039 67.4033 40.853 67.4033 C 40.6865 67.4033 40.5195 67.4053 40.353 67.4023 C 35.5625 67.3252 35.5381 67.3174 37.0396 62.6338 ZM 97.9492 95.0215 C 87.6294 94.9707 77.3096 94.998 66.9897 94.999 C 57.1689 95 47.3486 95.0225 37.5278 94.9902 C 32.9038 94.9746 32.8809 94.9277 32.8335 90.1934 C 32.7974 86.5322 32.7964 82.8691 32.8359 79.208 C 32.8872 74.4697 33.0674 74.2852 38.0381 74.25 C 43.6973 74.21 49.3564 74.2402 55.0161 74.2402 C 68.332 74.2402 81.6479 74.2393 94.9639 74.2412 C 96.1289 74.2412 97.2939 74.2617 98.459 74.2656 C 100.4409 74.2725 101.6465 75.1699 101.6611 77.2344 C 101.6958 82.2275 101.6968 87.2207 101.6714 92.2139 C 101.6587 94.7275 100.0142 95.0313 97.9492 95.0215 Z" fill="#ffffff"/>
		<path d="M 91.3638 80.5459 C 89.0752 80.543 87.1934 82.3232 87.105 84.5752 C 87.0107 86.9717 89.124 89.0703 91.519 88.958 C 93.7378 88.8545 95.5459 86.9053 95.5146 84.6514 C 95.4824 82.3584 93.6533 80.5488 91.3638 80.5459 Z" fill="#ffffff"/>
		<path d="M 77.4233 80.5449 C 75.228 80.6152 73.2456 82.6055 73.2529 84.7334 C 73.2612 87.0547 75.5645 89.1387 77.9067 88.9434 C 80.0791 88.7607 81.9185 86.6621 81.8003 84.5 C 81.6816 82.335 79.6235 80.4756 77.4233 80.5449 Z" fill="#ffffff"/>
	</g>
	<g id="Ebene%201">
	</g>
</svg>