<?xml version="1.0" encoding="utf-8"?>
<!-- Generator: Adobe Illustrator 16.0.3, SVG Export Plug-In . SVG Version: 6.00 Build 0)  -->
<!DOCTYPE svg PUBLIC "-//W3C//DTD SVG 1.1//EN" "http://www.w3.org/Graphics/SVG/1.1/DTD/svg11.dtd">
<svg version="1.1" id="Ebene_1" xmlns="http://www.w3.org/2000/svg" xmlns:xlink="http://www.w3.org/1999/xlink" x="0px" y="0px"
	 width="80px" height="80px" viewBox="0 0 80 80" enable-background="new 0 0 80 80" xml:space="preserve">
<g>
	<g>
		<g id="live-help">
			<path fill="#509DC9" d="M66.667,0H13.333c-4.19,0-7.619,3.429-7.619,7.619v53.333c0,4.19,3.429,7.619,7.619,7.619h15.238L40,80
				l11.429-11.429h15.238c4.19,0,7.619-3.429,7.619-7.619V7.619C74.286,3.429,70.857,0,66.667,0z M43.81,60.952H36.19v-7.619h7.619
				V60.952z M51.81,31.619l-3.429,3.429C45.333,37.714,43.81,40,43.81,45.714H36.19V43.81c0-4.19,1.524-8,4.571-10.667l4.572-4.952
				c1.524-1.143,2.286-3.048,2.286-5.333c0-4.191-3.429-7.619-7.619-7.619s-7.619,3.428-7.619,7.619h-7.619
				c0-8.381,6.857-15.238,15.238-15.238s15.238,6.857,15.238,15.238C55.238,26.286,53.714,29.333,51.81,31.619z"/>
		</g>
	</g>
	<g>
	</g>
	<g>
	</g>
	<g>
	</g>
	<g>
	</g>
	<g>
	</g>
	<g>
	</g>
	<g>
	</g>
	<g>
	</g>
	<g>
	</g>
	<g>
	</g>
	<g>
	</g>
	<g>
	</g>
	<g>
	</g>
	<g>
	</g>
	<g>
	</g>
</g>
</svg>
