<?xml version="1.0" encoding="utf-8"?>
<!-- Generator: Adobe Illustrator 16.0.3, SVG Export Plug-In . SVG Version: 6.00 Build 0)  -->
<!DOCTYPE svg PUBLIC "-//W3C//DTD SVG 1.1//EN" "http://www.w3.org/Graphics/SVG/1.1/DTD/svg11.dtd">
<svg version="1.1" id="Ebene_1" xmlns="http://www.w3.org/2000/svg" xmlns:xlink="http://www.w3.org/1999/xlink" x="0px" y="0px"
	 width="80px" height="80px" viewBox="0 0 80 80" enable-background="new 0 0 80 80" xml:space="preserve">
<g>
	<g>
	</g>
	<g>
	</g>
	<g>
	</g>
	<g>
	</g>
	<g>
	</g>
	<g>
	</g>
	<g>
	</g>
	<g>
	</g>
	<g>
	</g>
	<g>
	</g>
	<g>
	</g>
	<g>
	</g>
	<g>
	</g>
	<g>
	</g>
	<g>
	</g>
</g>
<g>
	<path fill="#509DC9" d="M40,0C17.945,0,0,17.943,0,40s17.945,40,40,40s40-17.943,40-40S62.055,0,40,0z M40,75.077
		C20.659,75.077,4.923,59.342,4.923,40C4.923,20.659,20.659,4.923,40,4.923S75.077,20.659,75.077,40
		C75.077,59.342,59.341,75.077,40,75.077z"/>
	<circle fill="#509DC9" cx="39.544" cy="24.051" r="4.117"/>
	<path fill="#509DC9" d="M39.5,34.883c-1.359,0-2.5,1.103-2.5,2.461v20.923c0,1.359,1.141,2.462,2.5,2.462s2.5-1.103,2.5-2.462
		V37.344C42,35.984,40.859,34.883,39.5,34.883z"/>
</g>
</svg>
