<?xml version="1.0" standalone="no"?>
<!-- Generator: Adobe Fireworks 10, Export SVG Extension by Aaron Beall (http://fireworks.abeall.com) . Version: 0.6.1  -->
<!DOCTYPE svg PUBLIC "-//W3C//DTD SVG 1.1//EN" "http://www.w3.org/Graphics/SVG/1.1/DTD/svg11.dtd">
<svg id="006_standort-Seite%201" viewBox="0 0 135 135" version="1.1"
	xmlns="http://www.w3.org/2000/svg" xmlns:xlink="http://www.w3.org/1999/xlink" xml:space="preserve"
	x="0px" y="0px" width="135px" height="135px"
>
	<g id="Hintergrund">
		<path d="M 98.8657 46.378 C 98.4732 30.698 82.9733 11.0892 58.5863 17.783 C 43.1845 22.0095 32.0152 39.7116 38.3922 56.4978 C 40.1081 61.0143 41.9543 65.4576 44.1448 69.7672 C 49.0416 79.4047 53.9331 89.0402 58.1499 99.0115 C 60.9837 105.7131 64.188 112.2585 67.306 119.047 C 68.9819 117.7182 69.3255 116.0369 69.9963 114.5461 C 73.474 106.8095 76.8927 99.0457 80.4539 91.3472 C 85.9028 79.5677 92.332 68.25 96.9608 56.0789 C 98.1627 52.9185 98.9506 49.762 98.8657 46.378 ZM 93.0652 54.0393 C 91.0574 60.2196 88.2817 66.0923 85.3263 71.8673 C 79.8754 82.5163 74.4318 93.1642 69.9153 104.2584 C 69.3641 105.6125 69.0238 107.1366 67.2718 108.5904 C 65.3079 104.2564 63.5217 100.1548 61.6056 96.1137 C 55.772 83.8119 49.9447 71.507 44.0081 59.254 C 37.2689 45.3441 41.7771 34.3192 51.3374 26.241 C 59.3967 19.432 73.1694 18.8306 82.2025 24.8839 C 92.1138 31.5259 96.5522 43.3045 93.0652 54.0393 Z" fill="#ffffff"/>
		<path d="M 67.7356 34.6473 C 60.1992 34.5946 54.742 39.9293 54.6941 47.3973 C 54.6468 54.7999 60.1313 60.2362 67.6438 60.2332 C 74.5963 60.2293 80.5491 54.5334 80.6989 47.741 C 80.8537 40.7533 74.858 34.6981 67.7356 34.6473 ZM 67.7468 56.0526 C 62.8099 56.1111 59.0257 52.5856 58.8963 47.8074 C 58.7572 42.665 62.4033 38.8836 67.5501 38.8338 C 72.359 38.786 76.033 42.4424 76.116 47.3563 C 76.1985 52.2273 72.5719 55.9959 67.7468 56.0526 Z" fill="#ffffff"/>
	</g>
	<g id="Ebene%201">
	</g>
</svg>