<?xml version="1.0" encoding="utf-8"?>
<!-- Generator: Adobe Illustrator 16.0.3, SVG Export Plug-In . SVG Version: 6.00 Build 0)  -->
<!DOCTYPE svg PUBLIC "-//W3C//DTD SVG 1.1//EN" "http://www.w3.org/Graphics/SVG/1.1/DTD/svg11.dtd">
<svg version="1.1" id="Ebene_1" xmlns="http://www.w3.org/2000/svg" xmlns:xlink="http://www.w3.org/1999/xlink" x="0px" y="0px"
	 width="80px" height="80px" viewBox="0 0 80 80" enable-background="new 0 0 80 80" xml:space="preserve">
<g>
	<g>
	</g>
	<g>
	</g>
	<g>
	</g>
	<g>
	</g>
	<g>
	</g>
	<g>
	</g>
	<g>
	</g>
	<g>
	</g>
	<g>
	</g>
	<g>
	</g>
	<g>
	</g>
	<g>
	</g>
	<g>
	</g>
	<g>
	</g>
	<g>
	</g>
</g>
<g>
	<path fill-rule="evenodd" clip-rule="evenodd" fill="#fff" d="M0,60.01c0.044-2.466,0.98-4.493,2.748-6.123
		c4.761-4.39,12.495-2.104,14.07,4.171c0.21,0.84,0.521,1.124,1.383,1.097c1.977-0.064,3.957,0.001,5.935-0.045
		c0.306-0.008,0.844-0.297,0.872-0.507c0.387-3.024,1.58-5.688,3.601-8.146c-1.829-1.801-3.608-3.588-5.449-5.31
		c-0.177-0.166-0.796-0.036-1.102,0.142c-3.542,2.058-7.828,1.562-10.615-1.268c-3.101-3.145-3.316-8.125-0.498-11.501
		c2.847-3.411,7.76-4.127,11.395-1.661c3.725,2.527,4.873,7.304,2.706,11.266c-0.209,0.383-0.435,0.756-0.639,1.107
		c1.894,1.894,3.755,3.755,5.703,5.703c2.492-2.006,5.382-3.225,8.795-3.537c0-1.34,0-2.644,0-3.948
		c0-1.099-0.049-2.201,0.017-3.296c0.048-0.805-0.227-1.128-1.023-1.327c-3.299-0.828-5.424-2.923-6.294-6.217
		c-1.186-4.488,1.556-9.113,6.074-10.319c4.58-1.224,9.242,1.396,10.523,5.912c1.284,4.528-1.35,9.287-5.846,10.56
		c-0.417,0.118-0.836,0.224-1.298,0.347c0,2.768,0,5.499,0,8.305c3.238,0.374,6.116,1.535,8.644,3.679
		c1.934-2.066,3.804-4.063,5.765-6.159c-1.361-2.038-1.999-4.509-1.246-7.237c0.571-2.067,1.767-3.677,3.535-4.867
		c3.461-2.332,8.108-1.772,11.027,1.315c2.848,3.013,3.057,7.755,0.52,11.095c-2.14,2.817-6.946,4.961-12.205,1.52
		c-1.85,1.983-3.716,3.987-5.681,6.094c1.763,2.212,2.961,4.998,3.294,8.28c1.865,0,3.686,0.005,5.505-0.002
		c0.841-0.004,1.849,0.242,2.472-0.136c0.528-0.32,0.596-1.381,0.893-2.104c1.461-3.556,5.402-5.819,9.028-5.192
		c4.157,0.718,7.212,3.888,7.392,7.675c0.008,0.18-0.019,0.36-0.035,0.635C53.33,60.01,26.72,60.01,0,60.01z"/>
</g>
</svg>
