<?xml version="1.0" encoding="utf-8"?>
<!-- Generator: Adobe Illustrator 16.0.3, SVG Export Plug-In . SVG Version: 6.00 Build 0)  -->
<!DOCTYPE svg PUBLIC "-//W3C//DTD SVG 1.1//EN" "http://www.w3.org/Graphics/SVG/1.1/DTD/svg11.dtd">
<svg version="1.1" id="Ebene_1" xmlns="http://www.w3.org/2000/svg" xmlns:xlink="http://www.w3.org/1999/xlink" x="0px" y="0px"
	 width="80px" height="80px" viewBox="0 0 80 80" enable-background="new 0 0 80 80" xml:space="preserve">
<g>
	<path fill="#509DC9" d="M65.974,1.623H14.026C6.292,1.623,0,7.915,0,15.648v32.043c0,7.732,6.292,14.025,14.026,14.025h33.088
		l15.839,15.838c0.537,0.537,1.254,0.822,1.984,0.822c0.361,0,0.726-0.07,1.073-0.213c1.048-0.434,1.732-1.457,1.732-2.592V61.605
		C74.645,60.734,80,54.826,80,47.691V15.648C80,7.915,73.708,1.623,65.974,1.623z M74.39,47.691c0,4.641-3.775,8.414-8.416,8.414
		h-1.037c-1.549,0-2.805,1.258-2.805,2.807v9.889L50.26,56.928c-0.526-0.525-1.239-0.822-1.984-0.822h-34.25
		c-4.641,0-8.416-3.773-8.416-8.414V15.649c0-4.641,3.775-8.416,8.416-8.416h51.948c4.641,0,8.416,3.775,8.416,8.416V47.691z"/>
	<path fill="#509DC9" d="M60.646,21.486H19.354c-1.549,0-2.805,1.255-2.805,2.805c0,1.549,1.256,2.805,2.805,2.805h41.292
		c1.549,0,2.805-1.256,2.805-2.805C63.451,22.742,62.195,21.486,60.646,21.486z"/>
	<path fill="#509DC9" d="M60.646,37.195H19.354c-1.549,0-2.805,1.256-2.805,2.806c0,1.548,1.256,2.804,2.805,2.804h41.292
		c1.549,0,2.805-1.256,2.805-2.804C63.451,38.451,62.195,37.195,60.646,37.195z"/>
</g>
</svg>
