<?xml version="1.0" encoding="utf-8"?>
<!-- Generator: Adobe Illustrator 16.0.3, SVG Export Plug-In . SVG Version: 6.00 Build 0)  -->
<!DOCTYPE svg PUBLIC "-//W3C//DTD SVG 1.1//EN" "http://www.w3.org/Graphics/SVG/1.1/DTD/svg11.dtd">
<svg version="1.1" id="Ebene_1" xmlns="http://www.w3.org/2000/svg" xmlns:xlink="http://www.w3.org/1999/xlink" x="0px" y="0px"
	 width="80px" height="80px" viewBox="0 0 80 80" enable-background="new 0 0 80 80" xml:space="preserve">
<g>
	<path fill="#fff" d="M76.832,41.926c-2.112-4.941-4.956-9.197-8.526-12.77c-3.572-3.571-7.827-6.414-12.768-8.526
		c-4.942-2.113-10.12-3.17-15.537-3.17s-10.596,1.057-15.536,3.17c-4.94,2.114-9.196,4.955-12.767,8.526
		c-3.572,3.573-6.414,7.828-8.527,12.77C1.057,46.866,0,52.044,0,57.461c0,7.797,2.099,14.986,6.295,21.563
		c0.565,0.863,1.369,1.294,2.411,1.294h62.589c1.042,0,1.846-0.431,2.41-1.294C77.902,72.417,80,65.229,80,57.461
		C80,52.044,78.944,46.866,76.832,41.926z M35.96,24.849c1.116-1.116,2.463-1.674,4.041-1.674c1.577,0,2.923,0.559,4.04,1.674
		c1.116,1.116,1.675,2.463,1.675,4.04c0,1.578-0.559,2.924-1.675,4.04c-1.117,1.117-2.463,1.674-4.04,1.674
		c-1.578,0-2.925-0.558-4.041-1.674c-1.116-1.116-1.674-2.462-1.674-4.04C34.286,27.312,34.844,25.965,35.96,24.849z M15.469,61.501
		c-1.117,1.116-2.463,1.675-4.041,1.675c-1.576,0-2.923-0.559-4.04-1.675c-1.117-1.114-1.674-2.463-1.674-4.04
		s0.557-2.923,1.674-4.04c1.116-1.116,2.463-1.675,4.04-1.675c1.578,0,2.925,0.559,4.041,1.675c1.116,1.117,1.674,2.463,1.674,4.04
		S16.585,60.385,15.469,61.501z M24.041,41.501c-1.116,1.116-2.463,1.674-4.041,1.674c-1.577,0-2.924-0.559-4.04-1.674
		c-1.116-1.116-1.674-2.462-1.674-4.04c0-1.577,0.558-2.924,1.674-4.04c1.116-1.117,2.463-1.674,4.04-1.674
		c1.578,0,2.925,0.558,4.041,1.674c1.117,1.117,1.674,2.463,1.674,4.04S25.157,40.385,24.041,41.501z M49.33,41.881l-4.509,17.053
		c1.489,1.012,2.561,2.365,3.215,4.063c0.654,1.695,0.744,3.437,0.268,5.222c-0.595,2.292-1.919,4.034-3.973,5.224
		c-2.055,1.191-4.226,1.489-6.519,0.894c-2.291-0.596-4.032-1.919-5.222-3.974s-1.488-4.226-0.893-6.519
		c0.476-1.785,1.414-3.25,2.812-4.396c1.399-1.147,2.991-1.793,4.777-1.942l4.509-17.054c0.208-0.774,0.655-1.362,1.339-1.764
		c0.685-0.4,1.398-0.498,2.143-0.29c0.745,0.208,1.317,0.647,1.719,1.317C49.397,40.385,49.509,41.107,49.33,41.881z M55.96,41.501
		c-1.117-1.116-1.675-2.462-1.675-4.04c0-1.577,0.559-2.924,1.675-4.04c1.116-1.116,2.462-1.674,4.04-1.674
		c1.577,0,2.924,0.558,4.04,1.674c1.116,1.116,1.675,2.463,1.675,4.04s-0.559,2.924-1.675,4.04c-1.116,1.116-2.462,1.674-4.04,1.674
		C58.423,43.175,57.077,42.617,55.96,41.501z M72.611,61.501c-1.116,1.116-2.462,1.675-4.04,1.675s-2.923-0.559-4.04-1.675
		c-1.116-1.114-1.674-2.463-1.674-4.04s0.558-2.923,1.674-4.04c1.117-1.116,2.462-1.675,4.04-1.675s2.924,0.559,4.04,1.675
		c1.117,1.117,1.674,2.463,1.674,4.04S73.728,60.385,72.611,61.501z"/>
</g>
</svg>
