<?xml version="1.0" encoding="UTF-8"?><svg id="Ebene_2" xmlns="http://www.w3.org/2000/svg" viewBox="0 0 30 30"><defs><style>.cls-1{fill:#2b2e33;}.cls-1,.cls-2{stroke:#2b2e33;stroke-linecap:round;stroke-linejoin:round;}.cls-2{fill:none;}</style></defs><polyline class="cls-2" points="15.38 5.3 2.94 5.3 2.94 21.47 12.92 21.47 12.92 23.4 11.62 24.7 15.07 24.7"/><line class="cls-2" x1="2.94" y1="19.01" x2="15.07" y2="19.01"/><polyline class="cls-2" points="15.07 5.3 27.52 5.3 27.52 21.47 17.54 21.47 17.54 23.4 18.84 24.7 15.38 24.7"/><line class="cls-2" x1="27.52" y1="19.01" x2="15.38" y2="19.01"/><circle class="cls-1" cx="9.65" cy="11.35" r="1.68"/><line class="cls-2" x1="10.75" y1="12.62" x2="12.65" y2="14.53"/><circle class="cls-1" cx="21.11" cy="11.35" r="1.68"/><path class="cls-1" d="m19.07,16.68c0-1.52-1.61-3.38-3.69-3.38v-2.7c.93,0,1.68-.75,1.68-1.68s-.75-1.68-1.68-1.68c-.93,0-1.68.75-1.68,1.68s.75,1.68,1.68,1.68v2.7c-2.08,0-3.69,1.86-3.69,3.38"/><path class="cls-1" d="m21.76,16.68c0-.93.75-1.68,1.68-1.68s1.68.75,1.68,1.68h-9.74s-9.74,0-9.74,0c0-.93.75-1.68,1.68-1.68s1.68.75,1.68,1.68"/><line class="cls-2" x1="20.02" y1="12.62" x2="18.11" y2="14.53"/></svg>