<?xml version="1.0" encoding="utf-8"?>
<!-- Generator: Adobe Illustrator 16.0.3, SVG Export Plug-In . SVG Version: 6.00 Build 0)  -->
<!DOCTYPE svg PUBLIC "-//W3C//DTD SVG 1.1//EN" "http://www.w3.org/Graphics/SVG/1.1/DTD/svg11.dtd">
<svg version="1.1" id="Ebene_1" xmlns="http://www.w3.org/2000/svg" xmlns:xlink="http://www.w3.org/1999/xlink" x="0px" y="0px"
	 width="80px" height="80px" viewBox="0 0 80 80" enable-background="new 0 0 80 80" xml:space="preserve">
<path fill="#fff" d="M74.033,14.712L44.799,1.048c-0.003-0.001-0.006-0.002-0.008-0.003c-3-1.394-6.582-1.394-9.59,0.003
	L5.975,14.708C2.292,16.419,0.003,19.872,0,23.718v32.511c-0.023,3.847,2.245,7.313,5.931,9.049l29.233,13.664
	C36.672,79.646,38.328,80,39.982,80c1.654,0,3.309-0.354,4.816-1.059L74.025,65.28c3.683-1.71,5.973-5.162,5.975-9.008V23.716
	C79.998,19.872,77.708,16.42,74.033,14.712z M38.287,6.833C38.823,6.584,39.412,6.46,40,6.46s1.176,0.124,1.712,0.373L68.794,19.49
	L40,32.948L11.207,19.49L38.287,6.833z M70.94,59.496L43.458,72.341V38.56l29.627-13.849v31.559
	C73.083,57.646,72.266,58.881,70.94,59.496z"/>
</svg>
