<?xml version="1.0" encoding="utf-8"?>
<!-- Generator: Adobe Illustrator 16.0.3, SVG Export Plug-In . SVG Version: 6.00 Build 0)  -->
<!DOCTYPE svg PUBLIC "-//W3C//DTD SVG 1.1//EN" "http://www.w3.org/Graphics/SVG/1.1/DTD/svg11.dtd">
<svg version="1.1" id="Ebene_1" xmlns="http://www.w3.org/2000/svg" xmlns:xlink="http://www.w3.org/1999/xlink" x="0px" y="0px"
	 width="80px" height="80px" viewBox="0 0 80 80" enable-background="new 0 0 80 80" xml:space="preserve">
<g>
	<g>
		<path id="Facebook_Places" fill="#fff" d="M66.254,19.911c-0.285-1.067-0.863-2.204-1.291-3.2C59.844,4.408,48.659,0,39.627,0
			c-12.09,0-25.406,8.106-27.183,24.816v3.414c0,0.143,0.049,1.423,0.119,2.063c0.997,7.964,7.281,16.428,11.974,24.391
			C29.586,63.217,34.825,71.609,40.016,80c3.201-5.476,6.39-11.022,9.518-16.355c0.852-1.565,1.842-3.13,2.695-4.624
			c0.569-0.994,1.656-1.989,2.152-2.915c5.049-9.243,13.176-18.559,13.176-27.732v-3.769C67.556,23.61,66.323,20.125,66.254,19.911z
			 M39.849,37.049c-3.554,0-7.444-1.777-9.364-6.685c-0.286-0.781-0.263-2.347-0.263-2.49V25.67c0-6.256,5.312-9.102,9.934-9.102
			c5.689,0,10.089,4.552,10.089,10.241S45.539,37.049,39.849,37.049z"/>
	</g>
	<g>
	</g>
	<g>
	</g>
	<g>
	</g>
	<g>
	</g>
	<g>
	</g>
	<g>
	</g>
	<g>
	</g>
	<g>
	</g>
	<g>
	</g>
	<g>
	</g>
	<g>
	</g>
	<g>
	</g>
	<g>
	</g>
	<g>
	</g>
	<g>
	</g>
</g>
</svg>
