<?xml version="1.0" standalone="no"?>
<!-- Generator: Adobe Fireworks 10, Export SVG Extension by Aaron Beall (http://fireworks.abeall.com) . Version: 0.6.1  -->
<!DOCTYPE svg PUBLIC "-//W3C//DTD SVG 1.1//EN" "http://www.w3.org/Graphics/SVG/1.1/DTD/svg11.dtd">
<svg id="012_printer-Seite%201" viewBox="0 0 135 135" version="1.1"
	xmlns="http://www.w3.org/2000/svg" xmlns:xlink="http://www.w3.org/1999/xlink" xml:space="preserve"
	x="0px" y="0px" width="135px" height="135px"
>
	<g id="Hintergrund">
		<path d="M 92.2419 88.0003 C 95.0733 88.0374 97.9203 87.8344 100.7341 88.0618 C 106.6097 88.5383 110.1793 85.3329 109.8658 79.1527 C 109.5192 72.3398 109.8033 65.4957 109.7819 58.6652 C 109.7604 51.4813 107.8926 49.6565 100.5076 49.6429 C 89.679 49.6223 78.8505 49.637 68.0219 49.6389 C 56.5274 49.6399 45.032 49.5901 33.5375 49.6624 C 28.4137 49.6946 25.7883 51.9617 25.6965 56.6667 C 25.5364 64.8259 25.5403 72.994 25.7043 81.1533 C 25.7834 85.124 28.3502 87.6908 32.3123 87.929 C 36.1297 88.1585 39.9716 88.0042 43.8028 87.9886 C 44.867 87.9847 45.8472 87.7152 45.7896 86.3601 C 45.7359 85.0684 44.7811 84.7638 43.7149 84.7511 C 40.5496 84.714 37.3824 84.7892 34.22 84.6768 C 30.1672 84.5343 29.186 83.6244 29.1284 79.597 C 29.0269 72.4355 29.0298 65.2701 29.1196 58.1077 C 29.1733 53.8069 30.1047 52.9234 34.5353 52.9155 C 56.6924 52.8784 78.8485 52.8794 101.0056 52.9146 C 105.4703 52.9214 106.4145 53.7933 106.4711 58.0579 C 106.5648 65.2204 106.5629 72.3857 106.4662 79.5482 C 106.4116 83.5951 105.4333 84.5275 101.4224 84.6759 C 98.428 84.7862 95.4258 84.6895 92.4274 84.7296 C 91.2792 84.7452 89.928 84.67 89.8226 86.3122 C 89.7083 88.0677 91.0889 87.9847 92.2419 88.0003 Z" fill="#ffffff"/>
		<path d="M 94.6232 35.7993 C 94.4436 32.0922 92.4802 30.0946 88.7554 29.5918 C 87.7732 29.4599 86.7646 29.4961 85.7688 29.4961 C 73.8018 29.4902 61.8348 29.4883 49.8678 29.498 C 48.7069 29.499 47.5285 29.4756 46.3871 29.6533 C 42.6331 30.2381 40.9362 32.1478 40.7957 36.0424 C 40.6931 38.865 40.7214 41.6945 40.7849 44.5181 C 40.8582 47.7986 40.902 47.8884 44.1152 47.9108 C 51.9269 47.9655 59.7386 47.9284 67.5503 47.9274 C 75.5289 47.9265 83.5076 47.8708 91.4843 47.9606 C 93.8353 47.987 94.7902 47.1473 94.6887 44.7719 C 94.5617 41.7853 94.7687 38.784 94.6232 35.7993 ZM 91.3456 40.7328 C 91.1875 44.396 91.0459 44.5893 87.2538 44.6215 C 80.7758 44.6772 74.2978 44.6372 67.8198 44.6372 C 61.5077 44.6381 55.1957 44.6616 48.8846 44.6303 C 44.0449 44.6069 44.0449 44.5757 44.0225 39.5582 C 44.0205 39.0603 44.0117 38.5614 44.0254 38.0635 C 44.1454 33.7842 44.9636 32.8391 49.3816 32.8107 C 61.6727 32.7346 73.9648 32.7356 86.256 32.8117 C 90.504 32.8381 91.1934 33.6426 91.3495 37.7432 C 91.3876 38.7381 91.3886 39.7379 91.3456 40.7328 Z" fill="#ffffff"/>
		<path d="M 84.7261 84.6905 C 73.423 84.7472 62.1189 84.7481 50.8158 84.6905 C 48.4482 84.6788 47.5822 85.6737 47.6202 87.973 C 47.7023 92.9592 47.5802 97.9473 47.6661 102.9334 C 47.7218 106.1329 47.879 106.3008 51.1165 106.3536 C 56.6006 106.4434 62.0867 106.378 67.5728 106.378 C 73.2238 106.377 78.8768 106.4434 84.5269 106.3516 C 87.7342 106.2999 87.8738 106.1388 87.9275 102.8827 C 88.0105 97.8965 87.8884 92.9084 87.9724 87.9222 C 88.0125 85.58 87.0527 84.6788 84.7261 84.6905 ZM 81.7443 103.1033 C 77.1008 103.0408 72.4564 103.0838 67.812 103.0838 C 63.1675 103.0838 58.5231 103.0418 53.8796 103.1033 C 51.7941 103.1307 50.8588 102.3047 50.9164 100.1685 C 51.0004 97.0188 50.9838 93.8652 50.9222 90.7145 C 50.8851 88.8087 51.718 88.0706 53.5994 88.0784 C 63.0533 88.1194 72.5081 88.1194 81.962 88.0784 C 83.822 88.0706 84.7056 88.755 84.6694 90.6833 C 84.6089 93.834 84.5913 96.9875 84.6772 100.1362 C 84.7349 102.252 83.8542 103.1317 81.7443 103.1033 Z" fill="#ffffff"/>
		<path d="M 83.5925 65.8823 C 84.3297 65.7271 84.5815 65.0993 84.5386 64.37 C 84.4947 63.6182 84.111 63.1222 83.3592 63.0578 C 82.3692 62.9718 81.3713 62.9465 80.3765 62.9445 C 74.5604 62.9348 68.7453 62.9396 62.9293 62.9396 C 62.9293 62.9435 62.9293 62.9474 62.9293 62.9504 C 56.2833 62.9504 49.6364 62.9435 42.9905 62.9582 C 42.0014 62.9601 40.9548 62.9455 40.866 64.3739 C 40.781 65.7476 41.6373 66.0376 42.7396 66.0727 C 43.2375 66.0893 43.7354 66.0952 44.2343 66.0952 C 56.5303 66.0971 68.8264 66.1 81.1224 66.0883 C 81.9474 66.0873 82.789 66.0512 83.5925 65.8823 Z" fill="#ffffff"/>
		<path d="M 92.3356 66.9075 C 93.6644 66.8343 94.4016 66.0132 94.5812 64.6756 C 94.4163 63.1183 93.4702 62.2552 91.9744 62.3021 C 90.6837 62.3421 89.7903 63.2354 89.7894 64.5555 C 89.7874 66.1284 90.7481 66.9944 92.3356 66.9075 Z" fill="#ffffff"/>
	</g>
	<g id="Ebene%201">
	</g>
</svg>