<?xml version="1.0" encoding="UTF-8"?><svg id="Ebene_2" xmlns="http://www.w3.org/2000/svg" viewBox="0 0 30 30"><defs><style>.cls-1{fill:none;stroke:#fff;stroke-linecap:round;stroke-linejoin:round;stroke-width:1.5px;}</style></defs><polyline class="cls-1" points="15.04 5.68 8.86 5.68 8.86 10.54"/><polyline class="cls-1" points="15.04 10.54 5.09 10.54 5.09 19.6 8.86 19.6"/><polyline class="cls-1" points="15.04 16.78 8.86 16.78 8.86 24.32 15.04 24.32"/><line class="cls-1" x1="15.04" y1="19.31" x2="11.54" y2="19.31"/><line class="cls-1" x1="21.86" y1="13.44" x2="18.35" y2="13.44"/><line class="cls-1" x1="15.04" y1="21.71" x2="11.54" y2="21.71"/><polyline class="cls-1" points="15.13 5.68 21.31 5.68 21.31 10.54"/><polyline class="cls-1" points="15.13 10.54 25.08 10.54 25.08 19.6 21.31 19.6"/><polyline class="cls-1" points="15.13 16.78 21.31 16.78 21.31 24.32 15.13 24.32"/><line class="cls-1" x1="15.13" y1="19.31" x2="18.63" y2="19.31"/><line class="cls-1" x1="15.13" y1="21.71" x2="18.63" y2="21.71"/></svg>
