<?xml version="1.0" encoding="utf-8"?>
<!-- Generator: Adobe Illustrator 16.0.3, SVG Export Plug-In . SVG Version: 6.00 Build 0)  -->
<!DOCTYPE svg PUBLIC "-//W3C//DTD SVG 1.1//EN" "http://www.w3.org/Graphics/SVG/1.1/DTD/svg11.dtd">
<svg version="1.1" id="Ebene_1" xmlns="http://www.w3.org/2000/svg" xmlns:xlink="http://www.w3.org/1999/xlink" x="0px" y="0px"
	 width="80px" height="80px" viewBox="0 0 80 80" enable-background="new 0 0 80 80" xml:space="preserve">
<g>
	<path fill-rule="evenodd" clip-rule="evenodd" fill="#509DC9" d="M81.704,37.399c0,8.159,0,16.311,0,24.468
		c-0.047,0.114-0.122,0.229-0.139,0.347c-0.4,2.805-1.904,4.795-4.429,6.04c-1.516,0.745-3.146,0.696-4.772,0.684
		c-1.352-0.008-2.7,0-4.138,0c0,4.531,0,8.968,0,13.412c-18.316,0-36.546,0-54.859,0c0-4.502,0-8.938,0-13.416
		c-1.946,0-3.81,0.017-5.67-0.004c-4.343-0.053-7.679-3.395-7.689-7.742c-0.016-7.754-0.004-15.508-0.004-23.26
		c0.002-1.617,0.667-2.942,1.852-4.006c1.266-1.137,2.772-1.78,4.455-1.968c0.995-0.112,2-0.13,3.075-0.195
		c0-1.946-0.006-3.858,0.004-5.771c0.008-2.255,1.26-4.087,3.38-4.823c0.55-0.191,0.653-0.449,0.651-0.967
		c-0.016-6.421-0.01-12.843-0.01-19.264c12.635,0,25.27,0,37.904,0c0.122,0.166,0.222,0.352,0.366,0.495
		c4.915,4.845,9.785,9.736,14.786,14.493c1.329,1.265,2.092,2.514,1.776,4.336c-0.088,0.5,0.122,0.721,0.627,0.894
		c2.084,0.715,3.391,2.621,3.395,4.829c0.004,1.706,0,3.411,0.004,5.117c0,0.23,0.026,0.46,0.043,0.731c0.544,0,1.02,0.001,1.498,0
		C77.919,31.824,80.41,33.582,81.704,37.399z M63.08,56.486c-14.861,0-29.686,0-44.504,0c0,6.952,0,13.848,0,20.76
		c14.851,0,29.655,0,44.504,0C63.08,70.302,63.08,63.414,63.08,56.486z M63.082,20.997c-5.296,0-10.547,0-15.875,0
		c0-5.046,0-9.962,0-14.886c-9.6,0-19.121,0-28.619,0c0,8.598,0,17.136,0,25.663c14.859,0,29.659,0,44.494,0
		C63.082,28.19,63.082,24.66,63.082,20.997z M13.396,51.35c18.327,0,36.542,0,54.853,0c0,3.725,0,7.412,0,11.157
		c1.795,0,3.497,0,5.196,0c1.388,0.004,1.778-0.37,1.778-1.73c0.005-5.409,0.002-10.819-0.002-16.229
		c0-0.283-0.03-0.565-0.047-0.863c-22.947,0-45.823,0-68.741,0c-0.012,0.2-0.031,0.354-0.031,0.509
		c0,5.544-0.002,11.084,0.004,16.628c0,0.289-0.017,0.651,0.138,0.851c0.256,0.33,0.639,0.777,0.981,0.794
		c1.936,0.073,3.875,0.037,5.87,0.037C13.396,58.762,13.396,55.095,13.396,51.35z M51.178,17.068c3.588,0,7.134,0,10.286,0
		c-3.263-3.425-6.694-7.032-10.125-10.637c-0.056,0.039-0.108,0.076-0.161,0.115C51.178,10.039,51.178,13.531,51.178,17.068z"/>
</g>
</svg>
