<?xml version="1.0" standalone="no"?>
<!-- Generator: Adobe Fireworks 10, Export SVG Extension by Aaron Beall (http://fireworks.abeall.com) . Version: 0.6.1  -->
<!DOCTYPE svg PUBLIC "-//W3C//DTD SVG 1.1//EN" "http://www.w3.org/Graphics/SVG/1.1/DTD/svg11.dtd">
<svg id="021_support-Seite%201" viewBox="0 0 135 135" version="1.1"
	xmlns="http://www.w3.org/2000/svg" xmlns:xlink="http://www.w3.org/1999/xlink" xml:space="preserve"
	x="0px" y="0px" width="135px" height="135px"
>
	<g id="Hintergrund">
		<g>
			<path d="M 103.8105 95.1797 C 95.0625 86.5039 86.252 77.8906 77.5645 69.1553 C 65.4463 56.9707 63.3779 57.4951 57.1572 38.5273 C 56.0303 35.0938 53.9121 32.251 50.9365 30.292 C 45.2734 26.5615 38.5732 25.582 32.8994 23.6758 C 30.8491 23.6768 29.5254 23.8096 28.8047 25.2168 C 28.0928 26.6064 28.6479 27.8379 29.4927 28.9141 C 30.312 29.957 31.2476 30.916 32.1875 31.8555 C 35.8359 35.5059 39.5078 39.1338 43.1699 42.7705 C 44.3555 43.9482 45.5508 45.1084 45.668 46.9424 C 45.8564 49.8867 42.7441 54.1689 39.1963 55.793 C 36.0225 57.2461 34.5137 56.8643 31.2896 53.7305 C 29.2603 51.7578 27.2612 49.7539 25.248 47.7646 C 23.5903 46.126 21.9404 44.4785 20.2686 42.8545 C 19.5532 42.1602 18.8257 41.4678 18.04 40.8574 C 16.8003 39.8936 15.4155 39.2734 13.9019 40.1787 C 12.3965 41.0801 12.1387 42.6104 12.5273 44.1338 C 13.9258 49.6123 15.1118 55.1914 17.5557 60.3145 C 19.333 64.0381 22.415 66.6133 26.3696 68 C 29.1958 68.9912 32.0059 70.0459 34.8799 70.877 C 41.4512 72.7754 46.875 76.3867 51.6748 81.2227 C 62.8184 92.4463 74.1055 103.5273 85.3389 114.6621 C 86.2842 115.5996 87.1943 116.5908 88.2373 117.4082 C 91.7373 120.1514 96.3496 120.2314 99.709 117.3174 C 102.3398 115.0342 104.8154 112.5186 107.0479 109.8457 C 110.0156 106.293 109.8564 102.1006 106.9131 98.4277 C 105.9805 97.2637 104.874 96.2344 103.8105 95.1797 ZM 103.8945 107.0713 C 101.7266 109.583 99.3691 111.96 96.8848 114.1602 C 95.0527 115.7832 92.8682 115.6133 90.9355 114.1133 C 89.8887 113.3018 88.9785 112.3125 88.0322 111.377 C 76.9043 100.376 65.7217 89.4297 54.6816 78.3418 C 49.2822 72.918 43.2139 68.7891 35.7549 66.7813 C 33.1914 66.0908 30.7178 65.0635 28.2095 64.1729 C 24.1714 62.7393 21.4893 59.9639 20.2109 55.8857 C 19.3804 53.2363 18.6611 50.5508 17.5903 46.835 C 22.0879 50.0605 24.9053 53.3086 27.8726 56.3535 C 31.231 59.7988 34.7529 62.2783 39.7627 60.1055 C 45.1182 57.7832 48.8799 54.0146 49.876 48.0518 C 50.3496 45.2158 49.1846 42.8389 47.1914 40.8486 C 44.6006 38.2607 41.9756 35.7051 39.4199 33.083 C 38.4316 32.0693 37.0674 31.2979 36.7207 29.2188 C 40.1084 30.3193 43.3135 31.127 46.3223 32.3994 C 49.4941 33.7412 51.7334 36.2363 52.9951 39.4883 C 54.1387 42.4365 55.2432 45.4014 56.2998 48.3818 C 58.4531 54.4531 61.8701 59.6563 66.4824 64.1777 C 78.0127 75.4805 89.4414 86.8877 100.9063 98.2578 C 101.8516 99.1943 102.8271 100.1123 103.6719 101.1367 C 105.2334 103.0293 105.5088 105.2002 103.8945 107.0713 Z" fill="#ffffff"/>
			<path d="M 108.1406 15.4971 C 105.0488 16.3262 102.3027 17.8604 100.0205 20.1729 C 96.9834 23.25 93.9063 26.2871 90.8535 29.3496 C 86.8623 33.3525 82.8379 37.3252 78.9082 41.3887 C 77.0439 43.3164 74.8525 45.6553 75.4697 48.2861 C 76.1953 51.376 75.0029 53.0615 73.3711 55.2754 C 70.6973 58.8994 73.1143 63.7021 77.5225 64.1826 C 79.6699 64.416 81.3975 63.5996 82.9473 62.1826 C 83.7617 61.4385 84.4668 60.1543 85.8525 60.7656 C 90.2227 62.6914 93.2715 60.2441 96.0361 57.541 C 103.2871 50.4492 110.4063 43.2227 117.5459 36.0166 C 120.1006 33.4385 121.4004 30.2441 121.752 26.9678 C 122.1836 19.4883 115.0898 13.6338 108.1406 15.4971 ZM 114.3506 33.3076 C 107.1934 40.5078 100.0098 47.6807 92.7881 54.8154 C 90.9385 56.6416 88.9521 58.0801 86.3311 55.7783 C 85.0908 54.6895 83.8438 55.4121 82.7949 56.4023 C 81.707 57.4297 80.6357 58.4756 79.5117 59.4619 C 78.8154 60.0713 77.9238 60.1611 77.2402 59.5557 C 76.3076 58.7285 76.6035 57.7695 77.3428 56.9375 C 77.8955 56.3164 78.4619 55.6982 79.0859 55.1523 C 81.0361 53.4453 82.1484 51.6396 80.2344 49.1641 C 79.373 48.0508 79.8975 46.9316 80.626 45.9629 C 81.3232 45.0352 82.0537 44.1162 82.8721 43.2949 C 89.4502 36.6934 96.0605 30.124 102.6416 23.5234 C 104.4453 21.7139 106.5283 20.4111 108.9824 19.708 C 113.168 18.5088 117.5918 21.8408 117.5547 26.2852 C 117.2959 28.9063 116.291 31.3555 114.3506 33.3076 Z" fill="#ffffff"/>
			<path d="M 48.6582 82.7305 C 45.6084 82.7734 43.3018 84.0596 41.3594 85.9824 C 33.9033 93.3652 26.478 100.7783 19.0737 108.2119 C 17.4116 109.8809 16.0801 111.8164 15.5874 114.1748 C 14.7686 118.0967 17.3628 120.7559 21.314 120.0078 C 23.6714 119.5615 25.6304 118.2744 27.3198 116.6123 C 34.7988 109.2529 42.2744 101.8906 49.7178 94.4961 C 51.5205 92.7051 52.9121 90.623 53.1025 87.9844 C 53.3262 84.8779 51.4688 82.8174 48.6582 82.7305 ZM 46.5127 91.7363 C 39.3311 98.9238 32.0918 106.0537 24.8481 113.1797 C 23.6606 114.3477 22.3535 115.3896 20.2319 115.7314 C 19.7681 113.3535 21.1064 112.1992 22.2231 111.0723 C 29.3755 103.8555 36.582 96.6914 43.7715 89.5117 C 43.8887 89.3936 44.002 89.2646 44.1387 89.1738 C 45.4355 88.3164 46.8193 86.1074 48.2568 87.6436 C 49.5605 89.0381 47.6191 90.6289 46.5127 91.7363 Z" fill="#ffffff"/>
			<path d="M 90.0879 94.8975 C 86.8945 94.7695 84.2686 97.1406 84.1025 100.3027 C 83.9395 103.4287 86.3857 106.0664 89.5732 106.1992 C 92.7637 106.3311 95.4297 103.9355 95.5674 100.8115 C 95.7051 97.7002 93.2246 95.0234 90.0879 94.8975 ZM 89.7871 101.835 C 89.0293 101.8145 88.543 101.2285 88.5547 100.5352 C 88.5674 99.8428 89.0664 99.2861 89.8359 99.2969 C 90.6162 99.3076 90.9395 99.8955 91.084 100.5918 C 90.9355 101.3047 90.5498 101.8555 89.7871 101.835 Z" fill="#ffffff"/>
		</g>
	</g>
	<g id="Ebene%201">
	</g>
</svg>