<?xml version="1.0" encoding="utf-8"?>
<!-- Generator: Adobe Illustrator 16.0.3, SVG Export Plug-In . SVG Version: 6.00 Build 0)  -->
<!DOCTYPE svg PUBLIC "-//W3C//DTD SVG 1.1//EN" "http://www.w3.org/Graphics/SVG/1.1/DTD/svg11.dtd">
<svg version="1.1" id="Ebene_1" xmlns="http://www.w3.org/2000/svg" xmlns:xlink="http://www.w3.org/1999/xlink" x="0px" y="0px"
	 width="80px" height="80px" viewBox="0 0 80 80" enable-background="new 0 0 80 80" xml:space="preserve">
<g>
	<g>
	</g>
	<g>
	</g>
	<g>
	</g>
	<g>
	</g>
	<g>
	</g>
	<g>
	</g>
	<g>
	</g>
	<g>
	</g>
	<g>
	</g>
	<g>
	</g>
	<g>
	</g>
	<g>
	</g>
	<g>
	</g>
	<g>
	</g>
	<g>
	</g>
</g>
<g>
	<path fill="#fff" d="M40,13.962c-14.357,0-26.038,11.68-26.038,26.038S25.643,66.038,40,66.038S66.038,54.357,66.038,40
		S54.357,13.962,40,13.962z M40,62.833c-12.59,0-22.833-10.242-22.833-22.833c0-12.59,10.243-22.833,22.833-22.833
		S62.833,27.41,62.833,40C62.833,52.591,52.59,62.833,40,62.833z"/>
	<circle fill="#fff" cx="39.703" cy="29.618" r="2.68"/>
	<path fill="#fff" d="M39.5,36.669c-0.885,0-1.5,0.718-1.5,1.602v13.62c0,0.885,0.615,1.603,1.5,1.603s1.5-0.718,1.5-1.603
		v-13.62C41,37.386,40.385,36.669,39.5,36.669z"/>
</g>
<g>
	<path fill="#fff" d="M0,37.701c1.632-0.042,2.962-0.482,3.991-1.319s1.712-1.988,2.051-3.45
		c0.339-1.463,0.519-3.964,0.541-7.505c0.021-3.54,0.084-5.872,0.191-6.996c0.191-1.781,0.545-3.212,1.065-4.293
		c0.52-1.082,1.161-1.945,1.924-2.592c0.763-0.646,1.738-1.139,2.925-1.479c0.806-0.212,2.12-0.318,3.943-0.318h1.781v4.993h-0.986
		c-2.205,0-3.668,0.397-4.389,1.192s-1.081,2.571-1.081,5.327c0,5.554-0.117,9.063-0.35,10.525
		c-0.382,2.269-1.034,4.018-1.956,5.247c-0.922,1.229-2.369,2.321-4.341,3.275c2.332,0.975,4.022,2.463,5.072,4.467
		c1.05,2.003,1.574,5.284,1.574,9.842c0,4.134,0.042,6.593,0.127,7.378c0.169,1.441,0.599,2.448,1.288,3.021s2.04,0.858,4.055,0.858
		h0.986v4.992h-1.781c-2.078,0-3.583-0.17-4.516-0.509c-1.357-0.487-2.48-1.277-3.371-2.368c-0.891-1.093-1.468-2.476-1.733-4.15
		s-0.408-4.42-0.429-8.236c-0.021-3.815-0.202-6.455-0.541-7.918c-0.339-1.463-1.023-2.617-2.051-3.466
		C2.962,43.372,1.632,42.927,0,42.884V37.701z"/>
	<path fill="#fff" d="M80,37.701v5.183c-1.632,0.043-2.963,0.488-3.991,1.336c-1.028,0.849-1.712,1.998-2.051,3.45
		c-0.339,1.452-0.52,3.948-0.541,7.489c-0.021,3.54-0.085,5.871-0.19,6.995c-0.191,1.802-0.546,3.238-1.065,4.31
		c-0.52,1.069-1.161,1.929-1.924,2.575s-1.739,1.14-2.926,1.479c-0.806,0.233-2.12,0.35-3.943,0.35h-1.781v-4.992h0.986
		c2.205,0,3.667-0.397,4.388-1.192s1.081-2.581,1.081-5.358c0-5.3,0.096-8.659,0.286-10.08c0.339-2.354,1.018-4.234,2.035-5.645
		c1.018-1.409,2.459-2.507,4.325-3.291c-2.438-1.166-4.155-2.708-5.151-4.627c-0.997-1.918-1.495-5.156-1.495-9.715
		c0-4.134-0.053-6.603-0.159-7.409c-0.149-1.42-0.567-2.411-1.256-2.973c-0.689-0.562-2.041-0.843-4.054-0.843h-0.986V9.75h1.781
		c2.077,0,3.583,0.17,4.516,0.509c1.356,0.467,2.48,1.251,3.371,2.354c0.89,1.103,1.468,2.491,1.733,4.166
		c0.265,1.675,0.408,4.42,0.429,8.236c0.021,3.816,0.202,6.451,0.541,7.902c0.339,1.452,1.022,2.603,2.051,3.45
		C77.037,37.214,78.368,37.659,80,37.701z"/>
</g>
</svg>
