<?xml version="1.0" encoding="UTF-8"?><svg id="Ebene_2" xmlns="http://www.w3.org/2000/svg" viewBox="0 0 30 30"><defs><style>.cls-1{fill:none;stroke:#2b2e33;stroke-linecap:round;stroke-linejoin:round;}</style></defs><path class="cls-1" d="m11.77,11.35l-3.74.07-2.53-4.39,1.94-1.94,4.34,2.63v3.63l5.08,5.26,1.46-1.44s4.15,4.12,6.54,6.51c1.91,1.91-.78,4.89-2.75,2.92l-6.57-6.57,1.32-1.42"/><path class="cls-1" d="m11.75,15.82l-6.2,6.2c-1.76,1.76.8,4.4,2.57,2.63l5.07-5.07"/><path class="cls-1" d="m14.56,7.13c2.64-2.64,4.95-2.57,7.32-1.54l-3.24,3.24c-2.16,2.16.27,4.9,2.66,2.51l3.27-3.27s2.33,3.66-1.54,7.54"/></svg>