<?xml version="1.0" standalone="no"?>
<!-- Generator: Adobe Fireworks 10, Export SVG Extension by Aaron Beall (http://fireworks.abeall.com) . Version: 0.6.1  -->
<!DOCTYPE svg PUBLIC "-//W3C//DTD SVG 1.1//EN" "http://www.w3.org/Graphics/SVG/1.1/DTD/svg11.dtd">
<svg id="005_benutzer-Seite%201" viewBox="0 0 135 135" version="1.1"
	xmlns="http://www.w3.org/2000/svg" xmlns:xlink="http://www.w3.org/1999/xlink" xml:space="preserve"
	x="0px" y="0px" width="135px" height="135px"
>
	<g id="Hintergrund">
		<path d="M 54.8516 91.0801 C 65.8369 91.0781 76.8232 91.1104 87.8086 91.0576 C 91.1416 91.042 91.6367 90.3574 91.084 87.2441 C 90.7568 85.4043 89.9521 83.7695 88.8672 82.2695 C 86.6914 79.2598 83.9111 76.9063 80.8232 74.8848 C 76.2031 71.8594 71.3057 69.4248 66.0127 67.8086 C 64.4219 67.3232 62.9033 66.3555 64.2627 64.6504 C 67.0996 61.0918 68.1035 56.542 70.9453 53.0176 C 72.8369 50.6719 73.5596 47.8818 72.6807 45.0361 C 71.9219 42.5771 71.8232 40.1611 71.8936 37.6631 C 71.959 35.3174 71.6074 33.0146 70.9287 30.7666 C 69.0127 24.4307 64.4141 21.1084 56.5986 20.4033 C 48.8057 19.7002 42.291 22.6934 39.5518 28.2646 C 39.1865 29.0068 38.916 29.8018 38.6523 30.5889 C 37.9063 32.8232 37.6396 35.1387 37.6709 37.4795 C 37.7041 39.9727 37.6914 42.3984 36.8994 44.8564 C 36.0508 47.4902 36.4258 50.2959 38.2148 52.4512 C 41.2305 56.0859 42.1182 60.8945 45.209 64.4727 C 46.3027 65.7393 45.8428 66.9727 44.2061 67.5684 C 43.4258 67.8525 42.5986 68.0078 41.8223 68.3008 C 35.3945 70.7197 29.3281 73.79 24.1436 78.3818 C 21.751 80.502 19.7178 82.9121 18.7354 86.0361 C 17.4473 90.1309 18.0869 91.0566 22.3945 91.0703 C 33.2129 91.1045 44.0322 91.0811 54.8516 91.0801 ZM 26.6494 81.8281 C 31.9141 77.0537 38.0752 73.7939 44.874 71.8398 C 47.8232 70.9922 49.4131 69.3145 49.835 66.335 C 50.0557 64.7793 49.9463 63.3936 48.8682 62.1299 C 46.5674 59.4346 44.7021 56.4375 44.123 52.9111 C 43.7412 50.584 40.8008 50.1611 40.7734 47.6025 C 40.751 45.3838 42.4326 43.6484 42.0605 41.3271 C 41.75 39.3799 41.8027 37.3301 41.9971 35.3555 C 42.6221 28.9961 46.2666 25.4092 52.5791 24.7754 C 53.5703 24.6758 54.5752 24.6484 55.5703 24.6836 C 62.9814 24.9463 66.9111 28.6396 67.6426 35.9688 C 68 39.543 66.7646 43.248 68.6934 46.7207 C 69.1377 47.5215 68.7969 48.8604 68.0664 49.5313 C 64.0352 53.2334 63.876 59.1035 60.1523 63.1211 C 57.9512 65.4961 60.3066 70.3379 63.7998 71.4385 C 69.0869 73.1035 74.0605 75.3818 78.6338 78.4648 C 81.5977 80.4619 84.5918 82.5586 86.2559 86.6211 C 65.1143 86.6211 44.5635 86.6211 23.7939 86.6211 C 23.5088 84.2529 25.2852 83.0664 26.6494 81.8281 Z" fill="#ffffff"/>
		<path d="M 94.7617 100.6875 C 92.3027 102.1299 92.2109 103.5684 94.6309 104.7803 C 96.5127 105.7236 97.0527 106.4766 96.249 108.5537 C 95.3721 110.8203 96.6445 112.4746 98.5898 111.6777 C 101.0186 110.6816 102.0322 110.9619 103.0811 113.4551 C 103.957 115.541 105.9658 115.4238 107 113.1836 C 108.0303 110.9531 109.0234 110.7676 111.209 111.583 C 113.3203 112.3701 114.708 110.8398 113.8379 108.7305 C 113.1406 107.042 113.1074 106.0693 114.6855 105 C 117.8242 102.873 117.8096 102.7744 114.5039 100.4023 C 113.2188 99.4805 112.6328 98.4482 113.6396 97.1035 C 114.4824 95.9785 114.5527 95.1182 113.5146 94.0957 C 112.4443 93.041 111.5625 93.3359 110.459 94.0654 C 109.0791 94.9785 108.0889 94.3672 107.1904 93.0625 C 105.0264 89.917 104.7656 89.8965 102.876 92.8838 C 102.2773 93.8301 101.6416 94.498 100.6182 94.5078 C 99.2832 94.5215 98.3467 92.4863 96.6045 93.9238 C 94.5625 95.6084 96.5625 96.8262 96.832 98.0752 C 96.793 99.627 95.8291 100.0625 94.7617 100.6875 ZM 104.7773 98.0723 C 107.3174 97.957 109.6104 100.0391 109.7354 102.5752 C 109.8613 105.1338 107.79 107.3721 105.1943 107.4834 C 102.5908 107.5947 100.334 105.5508 100.2451 103 C 100.1553 100.4414 102.2285 98.1875 104.7773 98.0723 Z" fill="#ffffff"/>
	</g>
	<g id="Ebene%201">
	</g>
</svg>