<?xml version="1.0" encoding="UTF-8" standalone="no"?>
<!-- Generator: Adobe Fireworks 10, Export SVG Extension by Aaron Beall (http://fireworks.abeall.com) . Version: 0.6.1  -->

<svg
   xmlns:dc="http://purl.org/dc/elements/1.1/"
   xmlns:cc="http://creativecommons.org/ns#"
   xmlns:rdf="http://www.w3.org/1999/02/22-rdf-syntax-ns#"
   xmlns:svg="http://www.w3.org/2000/svg"
   xmlns="http://www.w3.org/2000/svg"
   xmlns:sodipodi="http://sodipodi.sourceforge.net/DTD/sodipodi-0.dtd"
   xmlns:inkscape="http://www.inkscape.org/namespaces/inkscape"
   id="005_benutzer-Seite%201"
   viewBox="0 0 135 135"
   version="1.1"
   xml:space="preserve"
   x="0px"
   y="0px"
   width="135px"
   height="135px"
   sodipodi:docname="user.svg"
   inkscape:version="0.92.3 (2405546, 2018-03-11)"><metadata
   id="metadata13"><rdf:RDF><cc:Work
       rdf:about=""><dc:format>image/svg+xml</dc:format><dc:type
         rdf:resource="http://purl.org/dc/dcmitype/StillImage" /><dc:title /></cc:Work></rdf:RDF></metadata><defs
   id="defs11" /><sodipodi:namedview
   pagecolor="#ffffff"
   bordercolor="#666666"
   borderopacity="1"
   objecttolerance="10"
   gridtolerance="10"
   guidetolerance="10"
   inkscape:pageopacity="0"
   inkscape:pageshadow="2"
   inkscape:window-width="1600"
   inkscape:window-height="900"
   id="namedview9"
   showgrid="true"
   inkscape:pagecheckerboard="true"
   showguides="true"
   inkscape:guide-bbox="true"
   inkscape:zoom="4.6281251"
   inkscape:cx="36.769467"
   inkscape:cy="64.400339"
   inkscape:window-x="0"
   inkscape:window-y="0"
   inkscape:window-maximized="1"
   inkscape:current-layer="Hintergrund"
   inkscape:snap-others="false"
   inkscape:snap-grids="false"
   inkscape:snap-to-guides="false"><inkscape:grid
     type="xygrid"
     id="grid820" /><sodipodi:guide
     position="43.862254,110.19581"
     orientation="0,1"
     id="guide826"
     inkscape:locked="false" /><sodipodi:guide
     position="85,25"
     orientation="0,1"
     id="guide900"
     inkscape:locked="false" /><sodipodi:guide
     position="110,70"
     orientation="1,0"
     id="guide902"
     inkscape:locked="false" /><sodipodi:guide
     position="25,60"
     orientation="1,0"
     id="guide904"
     inkscape:locked="false" /></sodipodi:namedview>
	<g
   id="Hintergrund">
		<path
   d="m 67.796889,108.91965 c 12.870683,-0.002 25.742538,0.0355 38.613351,-0.0263 3.90502,-0.0183 4.48509,-0.82037 3.83754,-4.468 -0.38335,-2.15556 -1.32617,-4.07094 -2.59726,-5.828379 -2.54924,-3.526249 -5.80671,-6.283674 -9.424573,-8.652121 C 92.8129,86.400208 87.07497,83.547763 80.873545,81.654179 c -1.863826,-0.568709 -3.643061,-1.702494 -2.05035,-3.700236 3.323791,-4.169356 4.499989,-9.500027 7.829521,-13.629312 2.216251,-2.748288 3.062987,-6.017246 2.033243,-9.351348 C 87.796927,52.092252 87.681288,49.261599 87.76377,46.334872 87.84039,43.586585 87.428449,40.88856 86.633267,38.254741 84.388427,30.831397 79.00058,26.938897 69.843722,26.112782 60.713344,25.289012 53.080541,28.795927 49.871217,35.3233 c -0.427995,0.869582 -0.744921,1.801027 -1.053879,2.723214 -0.874034,2.617768 -1.186508,5.330674 -1.149835,8.073219 0.0389,2.921102 0.02401,5.763121 -0.903911,8.642981 -0.994242,3.085834 -0.554883,6.373069 1.54116,8.898279 3.533277,4.258518 4.573331,9.892406 8.194599,14.084724 1.281409,1.483985 0.742579,2.929069 -1.175026,3.627008 -0.914222,0.33286 -1.883392,0.514815 -2.792926,0.858101 -7.530989,2.83405 -14.638553,6.431298 -20.712857,11.811179 -2.803237,2.484086 -5.185391,5.307824 -6.336397,8.967985 -1.509173,4.79759 -0.759802,5.88216 4.287102,5.8982 12.67514,0.0401 25.351332,0.0127 38.027642,0.0114 z M 34.754408,98.079755 c 6.168268,-5.59382 13.386784,-9.413092 21.352447,-11.70257 3.455365,-0.993071 5.318136,-2.958711 5.812446,-6.449578 0.258577,-1.8227 0.130402,-3.446226 -1.132731,-4.92681 -2.695681,-3.157888 -4.881117,-6.669375 -5.559606,-10.801003 -0.447328,-2.726495 -3.892384,-3.221977 -3.924486,-6.219703 -0.02625,-2.599491 1.943966,-4.632735 1.508003,-7.352434 -0.363792,-2.281393 -0.302045,-4.682995 -0.07428,-6.996493 0.732268,-7.450849 5.002265,-11.653361 12.398166,-12.395939 1.161317,-0.116693 2.338685,-0.148796 3.504572,-0.107555 8.683051,0.307786 13.287197,4.634961 14.144242,13.222054 0.41874,4.187632 -1.028688,8.528514 1.231148,12.597225 0.520555,0.93824 0.121263,2.506933 -0.734612,3.292977 -4.723066,4.337484 -4.909588,11.215056 -9.272379,15.922188 -2.57887,2.782616 0.180782,8.455404 4.273512,9.744896 6.194514,1.950761 12.021723,4.620082 17.379928,8.23221 3.472589,2.339858 6.980572,4.796409 8.930262,9.55615 -24.770085,0 -48.847974,0 -73.182215,0 -0.334032,-2.77465 1.747248,-4.164791 3.345583,-5.615615 z"
   id="path2"
   inkscape:connector-curvature="0"
   style="fill:#ffffff;stroke-width:1.17162776" />
		
	</g>
	<g
   id="Ebene%201">
	</g>
</svg>