<?xml version="1.0" encoding="UTF-8" standalone="no"?>
<svg xmlns:svg="http://www.w3.org/2000/svg"
     xmlns="http://www.w3.org/2000/svg"
     viewBox="0 0 333.00003 49.499999"
     height="0.55000001in"
     width="3.7in"
     version="1.1"
     id="svg2">
  <defs id="defs6">
    <clipPath id="clipPath16" clipPathUnits="userSpaceOnUse">
      <path id="path18" d="m 0,70.833 113.5,0 L 113.5,0 0,0 0,70.833 Z" />
    </clipPath>
    <clipPath id="clipPath38" clipPathUnits="userSpaceOnUse">
      <path id="path40" d="m 0,70.833 113.5,0 L 113.5,0 0,0 0,70.833 Z" />
    </clipPath>
  </defs>
  <g id="g10" transform="matrix(1.25,0,0,-1.25,-17.80253,53.716098)">
    <g
       transform="matrix(2.354532,0,0,2.354532,12.633341,-67.350761)"
       id="g12">
       <g clip-path="url(#clipPath16)" id="g14"><g id="text20"
           style="fill:#000000;fill-opacity:1;fill-rule:nonzero;stroke:none" transform="matrix(1,0,0,-1,0.6948,33.8584)">
           <path
             id="path4276"
             style=""
             d="m 0.76464384,-3.393644 0,-2.7664643 q 0,-1.2028105 0.81619286,-1.9244968 0.8247844,-0.7216863 2.1564675,-0.7216863 1.5636537,0 2.268157,0.7904183 0.7045033,0.7904184 0.7045033,2.5860427 l 0,2.0361864 q 0,3.56547408 -2.9726603,3.56547408 -2.97266036,0 -2.97266036,-3.56547408 z M 3.7373042,-7.9213665 q -1.159853,0 -1.6152028,1.0137974 -0.3178856,0.7130948 -0.3178856,2.1049185 0,0.1632385 0.00859,0.6443627 0.00859,0.4725328 0.00859,0.5670393 0,1.3145001 0.3092942,1.9588629 0.4381666,0.91929088 1.6066112,0.91929088 1.159853,0 1.6066112,-0.92788238 0.3092941,-0.6443628 0.3092941,-1.9502714 0,-0.103098 0.00859,-0.5842223 0.00859,-0.4811242 0.00859,-0.6357712 0,-1.3918237 -0.3178856,-2.1049185 -0.4467582,-1.0052059 -1.6152027,-1.0052059 z" />
             <path
             id="path4278"
             style=""
             d="m 9.0992962,-3.5654741 q 0,1.073938 0.3608432,1.8471733 0.4725327,1.00520598 1.4175976,1.00520598 1.168445,0 1.606612,-0.93647388 0.300702,-0.6357713 0.300702,-1.9674544 0,-0.094507 0.0086,-0.5326733 0.0086,-0.4467582 0.0086,-0.6099967 0,-3.1616734 -1.804215,-3.1616734 -0.97084,0 -1.4863306,0.9794314 -0.4123922,0.7818268 -0.4123922,1.8557648 l 0,1.5206962 z m -0.034366,-4.1067388 q 0.8419674,-1.1340785 2.0619608,-1.1340785 1.400415,0 2.061961,0.8333758 0.661546,0.8333759 0.661546,2.6633662 l 0,1.9159054 q 0,3.56547408 -2.972661,3.56547408 -1.0567545,0 -1.7440748,-1.03957197 l -0.034366,4.10673879 -1.0825295,0 0,-11.8734583 1.0481635,0 0,0.9622485 z" />
             <path
             id="path4280" style="" d="m 15.853112,-4.0723728 0,0.6271798 q 0,2.73209818 1.890131,2.73209818 1.795624,0 1.847173,-1.96745438 l 1.125487,0 q 0,1.3832321 -0.781827,2.12210145 -0.781827,0.73027783 -2.190833,0.73027783 -2.972661,0 -2.972661,-3.22181398 l 0,-2.1049184 q 0,-3.6513891 2.972661,-3.6513891 1.54647,0 2.208016,0.7130948 0.541265,0.5756307 0.635771,1.7698498 0.04296,0.7474608 0.137465,2.250974 l -4.871383,0 z m 3.780262,-0.8849249 q 0,-1.3918236 -0.266337,-2.0018204 -0.420984,-0.9622484 -1.623794,-0.9622484 -1.202811,0 -1.623795,0.9622484 -0.266336,0.6099968 -0.266336,2.0018204 l 3.780262,0 z" />
             <path id="path4282" style="" d="m 23.070868,0 -1.082529,0 0,-8.6344614 1.082529,0 0,0.9794315 q 0.876334,-1.1512615 2.061961,-1.1512615 2.371255,0 2.371255,2.7320982 l 0,6.0741932 -1.082529,0 0,-6.0226442 q 0,-1.8987223 -1.537879,-1.8987223 -0.859151,0 -1.340275,0.6787288 -0.472533,0.6787288 -0.472533,1.8299903 l 0,5.4126474 z" />
           </g>
         </g>
       </g>
       <g
       id="text24"
       style="fill:#0071b5;fill-opacity:1;fill-rule:nonzero;stroke:none"
       transform="scale(1,-1)">
       <path
         id="path4255"
         style=""
         d="m 137.23089,-30.616458 0,-2.083584 3.21641,0 0,-4.12671 2.54885,-1.112594 0,5.239304 4.06602,0 0,2.083584 -4.06602,0 0,13.027459 q 0,1.780149 0.46527,2.467934 0.46526,0.667556 1.63854,0.667556 0.60687,0 1.96221,-0.202289 l 0,2.245416 -2.75114,0.141602 q -3.86373,0 -3.86373,-4.005336 l 0,-14.342342 -3.21641,0 z" /><path
         id="path4257"
         style=""
         d="m 150.77685,-12.369925 0,-29.008346 2.54885,0 0,10.984332 q 2.06336,-2.710683 4.85496,-2.710683 5.58319,0 5.58319,6.432814 l 0,14.301883 -2.54885,0 0,-14.180509 q 0,-2.083585 -0.95076,-3.277094 -0.95076,-1.193509 -2.67022,-1.193509 -2.0229,0 -3.15572,1.598089 -1.1126,1.598088 -1.1126,4.308771 l 0,12.744252 -2.54885,0 z" /><path
         id="path4259"
         style=""
         d="m 168.07472,-12.369925 0,-20.330117 2.54885,0 0,20.330117 -2.54885,0 z m -0.28321,-25.812169 0,-3.196177 3.09504,0 0,3.196177 -3.09504,0 z" /><path
         id="path4261"
         style=""
         d="m 178.18305,-12.369925 -2.54885,0 0,-20.330117 2.54885,0 0,2.306103 q 2.06335,-2.710683 4.85495,-2.710683 5.5832,0 5.5832,6.432814 l 0,14.301883 -2.54885,0 0,-14.180509 q 0,-4.470603 -3.62099,-4.470603 -2.0229,0 -3.15572,1.598089 -1.11259,1.598088 -1.11259,4.308771 l 0,12.744252 z" /><path
         id="path4263"
         style=""
         d="m 201.08434,-26.752724 q 0.0202,-4.268313 -3.45915,-4.268313 -3.76259,0 -3.76259,7.343117 0,-0.343893 0.0202,1.314883 0,0 0,1.132822 0,7.181286 3.66144,7.181286 3.60076,0 3.58053,-4.430145 l 2.54885,0 q 0,3.115262 -1.51717,4.814495 -1.51718,1.699234 -4.30877,1.699234 -4.49084,0 -5.86641,-3.560299 -0.7687,-2.002669 -0.7687,-7.403804 0,-4.895412 0.95076,-6.978996 1.45649,-3.196178 5.78549,-3.196178 5.5832,0 5.68434,6.351898 l -2.54885,0 z" /><path
         id="path4265"
         style=""
         d="m 209.4208,-12.369925 0,-29.008346 2.54885,0 0,29.008346 -2.54885,0 z" /><path
         id="path4267"
         style=""
         d="m 216.46373,-12.369925 0,-20.330117 2.54885,0 0,20.330117 -2.54885,0 z m -0.28321,-25.812169 0,-3.196177 3.09503,0 0,3.196177 -3.09503,0 z" /><path
         id="path4269"
         style=""
         d="m 226.06632,-21.958458 0,1.476715 q 0,6.432814 4.45037,6.432814 4.22786,0 4.34923,-4.632435 l 2.64999,0 q 0,3.256865 -1.84083,4.996556 -1.84084,1.719463 -5.15839,1.719463 -6.99922,0 -6.99922,-7.585865 l 0,-4.956098 q 0,-8.597314 6.99922,-8.597314 3.64121,0 5.19885,1.679005 1.27442,1.355341 1.49694,4.167169 0.10114,1.75992 0.32366,5.29999 l -11.46982,0 z m 8.90074,-2.083584 q 0,-3.277093 -0.62709,-4.71335 -0.99122,-2.265645 -3.82328,-2.265645 -2.83206,0 -3.82328,2.265645 -0.62709,1.436257 -0.62709,4.71335 l 8.90074,0 z" /><path
         id="path4271"
         style=""
         d="m 243.06075,-12.369925 -2.54885,0 0,-20.330117 2.54885,0 0,2.306103 q 2.06335,-2.710683 4.85495,-2.710683 5.5832,0 5.5832,6.432814 l 0,14.301883 -2.54885,0 0,-14.180509 q 0,-4.470603 -3.62099,-4.470603 -2.0229,0 -3.15572,1.598089 -1.11259,1.598088 -1.11259,4.308771 l 0,12.744252 z" /><path
         id="path4273"
         style=""
         d="m 255.22047,-30.616458 0,-2.083584 3.21641,0 0,-4.12671 2.54885,-1.112594 0,5.239304 4.06602,0 0,2.083584 -4.06602,0 0,13.027459 q 0,1.780149 0.46527,2.467934 0.46526,0.667556 1.63854,0.667556 0.60687,0 1.96221,-0.202289 l 0,2.245416 -2.75114,0.141602 q -3.86373,0 -3.86373,-4.005336 l 0,-14.342342 -3.21641,0 z" /></g>
    <g id="text30" style="fill:#999999;fill-opacity:1;fill-rule:nonzero;stroke:none" transform="scale(1,-1)">
      <path id="path4252" style="" d="m 273.73957,-37.397837 q -0.66306,0 -1.23621,0.2641 -0.57316,0.2641 -1.04516,0.792299 -0.47763,0.5282 -0.71926,1.174402 -0.24162,0.640583 -0.24162,1.371072 0,0.724869 0.24162,1.365452 0.24163,0.634963 0.71926,1.163163 0.472,0.5282 1.04516,0.797919 0.57315,0.2641 1.23621,0.2641 0.66306,0 1.23621,-0.2641 0.57877,-0.269719 1.05078,-0.797919 0.47201,-0.52258 0.70801,-1.157544 0.23601,-0.634963 0.23601,-1.371071 0,-0.747347 -0.24163,-1.38231 -0.236,-0.640583 -0.70239,-1.163164 -0.47201,-0.528199 -1.05078,-0.792299 -0.57315,-0.2641 -1.23621,-0.2641 z m 0,-0.578772 q 0.7642,0 1.42726,0.309053 0.66868,0.309053 1.21936,0.92154 0.55067,0.612487 0.82039,1.348595 0.27534,0.736108 0.27534,1.601457 0,0.85411 -0.27534,1.590218 -0.26972,0.730489 -0.82039,1.342976 -0.55068,0.612487 -1.21936,0.92154 -0.66306,0.309053 -1.42726,0.309053 -0.76982,0 -1.4385,-0.309053 -0.66306,-0.309053 -1.21374,-0.92154 -0.55067,-0.612487 -0.82601,-1.342976 -0.26972,-0.736108 -0.26972,-1.590218 0,-0.865349 0.26972,-1.601457 0.27534,-0.736108 0.82601,-1.348595 0.55068,-0.612487 1.21374,-0.92154 0.66868,-0.309053 1.4385,-0.309053 z m -0.14048,2.326326 -0.61811,0 0,1.550885 0.61811,0 q 0.5563,0 0.77544,-0.174194 0.22477,-0.174193 0.22477,-0.595629 0,-0.427055 -0.22477,-0.601249 -0.22476,-0.179813 -0.77544,-0.179813 z m 0.0393,-0.578772 q 0.88783,0 1.32612,0.337149 0.44391,0.33153 0.44391,1.011446 0,0.483247 -0.26971,0.797919 -0.2641,0.314672 -0.74735,0.410198 0.118,0.04495 0.28658,0.2641 0.17419,0.213527 0.40457,0.623725 l 0.69116,1.253069 -0.86535,0 -0.65744,-1.174401 q -0.29781,-0.539438 -0.48325,-0.679917 -0.17981,-0.146098 -0.45515,-0.146098 l -0.33153,0 0,2.000416 -0.78668,0 0,-4.697606 1.44412,0 z" />
    </g>
    <g transform="matrix(2.354532,0,0,2.354532,12.633341,-67.350761)" id="g34">
      <g clip-path="url(#clipPath38)" id="g36">
        <g transform="translate(51.5342,33.9111)" id="g42">
          <path id="path44" style="fill:#0071b5;fill-opacity:1;fill-rule:nonzero;stroke:none" d="m 0,0 c 0,1.168 -0.948,2.116 -2.117,2.116 -0.982,0 -1.8,-0.672 -2.039,-1.578 l -2.071,0 C -6.33,1.23 -6.623,1.858 -7.056,2.367 l 1.445,1.419 c 0.831,-0.653 2.031,-0.605 2.797,0.16 0.826,0.826 0.826,2.167 0,2.993 -0.827,0.827 -2.167,0.827 -2.993,0 C -6.563,6.183 -6.62,5.001 -5.992,4.172 l -1.446,-1.42 c -0.579,0.506 -1.316,0.83 -2.129,0.89 l 0,2.009 c 1.061,0.114 1.891,1.003 1.891,2.095 0,1.169 -0.948,2.116 -2.116,2.116 -1.169,0 -2.117,-0.947 -2.117,-2.116 0,-1.06 0.782,-1.931 1.798,-2.085 l 0,-2.019 c -0.804,-0.059 -1.535,-0.377 -2.111,-0.873 l -1.384,1.387 c 0.64,0.83 0.589,2.022 -0.172,2.782 -0.827,0.827 -2.167,0.827 -2.993,0 -0.827,-0.826 -0.827,-2.166 0,-2.993 0.76,-0.76 1.95,-0.812 2.78,-0.173 l 1.386,-1.387 c -0.442,-0.511 -0.742,-1.147 -0.846,-1.847 l -1.981,0 c -0.239,0.906 -1.057,1.577 -2.038,1.577 -1.169,0 -2.116,-0.948 -2.116,-2.116 l 2.117,0 0,-0.004 7.63,0 7.722,0 0,0.005 L 0,0 Z" />
        </g>
      </g>
    </g>
  </g>
</svg>