<?xml version="1.0" encoding="UTF-8"?>
<!-- Generator: Adobe Illustrator 16.0.3, SVG Export Plug-In . SVG Version: 6.00 Build 0)  -->
<!DOCTYPE svg PUBLIC "-//W3C//DTD SVG 1.1//EN" "http://www.w3.org/Graphics/SVG/1.1/DTD/svg11.dtd">
<svg version="1.1" id="svg2" xmlns:dc="http://purl.org/dc/elements/1.1/" xmlns:cc="http://creativecommons.org/ns#" xmlns:rdf="http://www.w3.org/1999/02/22-rdf-syntax-ns#" xmlns:svg="http://www.w3.org/2000/svg" xmlns="http://www.w3.org/2000/svg" xmlns:xlink="http://www.w3.org/1999/xlink" x="0px" y="0px" width="248.982px" height="36.635px" viewBox="0 0 248.982 36.635" enable-background="new 0 0 248.982 36.635" xml:space="preserve">
<g id="g10" transform="matrix(1.25,0,0,-1.25,-20.08706,51.722837)">
	<g id="g12" transform="matrix(2.354532,0,0,2.354532,12.633341,-67.350761)">
		<g id="g14">
			<g id="text20" transform="matrix(1,0,0,-1,0.6948,33.8584)">
				<path id="path4276" fill="#FFFFFF" d="M0.765-4.806v-1.491c0-0.432,0.147-0.778,0.44-1.037c0.296-0.259,0.684-0.389,1.162-0.389      c0.562,0,0.969,0.142,1.222,0.426c0.253,0.284,0.38,0.749,0.38,1.394v1.098c0,1.28-0.534,1.921-1.602,1.921      C1.299-2.885,0.765-3.525,0.765-4.806z M2.367-7.246c-0.417,0-0.707,0.182-0.87,0.546C1.382-6.444,1.325-6.065,1.325-5.566      c0,0.059,0.001,0.175,0.004,0.347c0.003,0.17,0.004,0.271,0.004,0.306c0,0.472,0.056,0.824,0.167,1.056      c0.157,0.33,0.446,0.495,0.866,0.495c0.417,0,0.705-0.167,0.866-0.5c0.111-0.231,0.167-0.582,0.167-1.051      c0-0.037,0.002-0.142,0.004-0.315C3.407-5.4,3.408-5.515,3.408-5.57c0-0.5-0.057-0.878-0.171-1.134      C3.077-7.066,2.786-7.246,2.367-7.246L2.367-7.246z"/>
				<path id="path4278" fill="#FFFFFF" d="M5.256-4.899c0,0.386,0.065,0.718,0.194,0.995c0.17,0.361,0.425,0.542,0.764,0.542      c0.42,0,0.709-0.168,0.866-0.505c0.108-0.228,0.162-0.581,0.162-1.06c0-0.034,0.002-0.129,0.005-0.287      c0.003-0.161,0.005-0.27,0.005-0.329c0-1.136-0.324-1.704-0.972-1.704c-0.349,0-0.616,0.176-0.801,0.528      c-0.148,0.281-0.222,0.614-0.222,1V-4.899L5.256-4.899z M5.238-7.112C5.54-7.519,5.91-7.723,6.349-7.723      c0.503,0,0.873,0.15,1.111,0.449c0.238,0.299,0.357,0.778,0.357,1.435v1.033c0,1.28-0.534,1.921-1.602,1.921      c-0.38,0-0.693-0.187-0.94-0.56L5.256-1.232H4.673V-7.63h0.565V-7.112z"/>
				<path id="path4280" fill="#FFFFFF" d="M8.896-5.172v0.338c0,0.981,0.34,1.472,1.018,1.472c0.645,0,0.977-0.353,0.996-1.06h0.607      c0,0.497-0.141,0.878-0.421,1.144c-0.281,0.262-0.675,0.394-1.181,0.394c-1.068,0-1.602-0.579-1.602-1.736v-1.134      c0-1.312,0.534-1.968,1.602-1.968c0.556,0,0.952,0.128,1.19,0.384c0.194,0.207,0.309,0.525,0.343,0.954      c0.015,0.269,0.04,0.673,0.074,1.213H8.896z M10.933-5.649c0-0.5-0.048-0.86-0.144-1.079c-0.151-0.346-0.443-0.519-0.875-0.519      c-0.432,0-0.724,0.173-0.875,0.519C8.943-6.509,8.896-6.149,8.896-5.649H10.933z"/>
				<path id="path4282" fill="#FFFFFF" d="M12.785-2.977h-0.583V-7.63h0.583v0.528c0.315-0.414,0.685-0.62,1.111-0.62      c0.852,0,1.278,0.491,1.278,1.472v3.274h-0.583v-3.246c0-0.682-0.276-1.023-0.829-1.023c-0.309,0-0.549,0.122-0.722,0.366      c-0.17,0.244-0.255,0.573-0.255,0.986V-2.977z"/>
			</g>
		</g>
	</g>
	<g id="text24" transform="scale(1,-1)">
		<path id="path4255" fill="#FFFFFF" d="M81.363-29.213v-1.123h1.733v-2.224l1.373-0.599v2.823h2.191v1.123h-2.191v7.02    c0,0.641,0.084,1.083,0.251,1.33c0.167,0.241,0.461,0.36,0.883,0.36c0.219,0,0.57-0.036,1.058-0.109v1.21l-1.482,0.077    c-1.388,0-2.082-0.72-2.082-2.159v-7.729H81.363L81.363-29.213z"/>
		<path id="path4257" fill="#FFFFFF" d="M88.663-19.38v-15.633h1.373v5.92c0.742-0.974,1.614-1.461,2.617-1.461    c2.006,0,3.009,1.156,3.009,3.467v7.708h-1.374v-7.643c0-0.748-0.17-1.337-0.512-1.766c-0.342-0.429-0.821-0.643-1.439-0.643    c-0.727,0-1.294,0.287-1.701,0.861c-0.4,0.574-0.6,1.348-0.6,2.321v6.869H88.663L88.663-19.38z"/>
		<path id="path4259" fill="#FFFFFF" d="M97.984-19.38v-10.956h1.373v10.956H97.984z M97.832-33.29v-1.723H99.5v1.723H97.832z"/>
		<path id="path4261" fill="#FFFFFF" d="M103.431-19.38h-1.373v-10.956h1.373v1.243c0.741-0.974,1.614-1.461,2.616-1.461    c2.006,0,3.009,1.156,3.009,3.467v7.708h-1.373v-7.643c0-1.606-0.65-2.409-1.951-2.409c-0.727,0-1.293,0.287-1.7,0.861    c-0.4,0.574-0.6,1.348-0.6,2.321V-19.38L103.431-19.38z"/>
		<path id="path4263" fill="#FFFFFF" d="M115.773-27.131c0.007-1.533-0.614-2.3-1.864-2.3c-1.352,0-2.028,1.319-2.028,3.957    c0-0.123,0.004,0.113,0.011,0.709c0,0,0,0.204,0,0.61c0,2.58,0.658,3.87,1.973,3.87c1.293,0,1.937-0.795,1.93-2.387h1.373    c0,1.12-0.273,1.985-0.817,2.595c-0.545,0.611-1.319,0.916-2.323,0.916c-1.613,0-2.667-0.641-3.162-1.919    c-0.276-0.72-0.414-2.049-0.414-3.99c0-1.759,0.17-3.013,0.512-3.761c0.523-1.148,1.563-1.723,3.118-1.723    c2.006,0,3.026,1.141,3.062,3.423H115.773L115.773-27.131z"/>
		<path id="path4265" fill="#FFFFFF" d="M120.266-19.38v-15.633h1.373v15.633H120.266z"/>
		<path id="path4267" fill="#FFFFFF" d="M124.06-19.38v-10.956h1.374v10.956H124.06z M123.909-33.29v-1.723h1.667v1.723H123.909z"/>
		<path id="path4269" fill="#FFFFFF" d="M129.236-24.547v0.796c0,2.31,0.799,3.466,2.398,3.466c1.519,0,2.301-0.832,2.344-2.497    h1.428c0,1.171-0.33,2.068-0.991,2.694c-0.661,0.617-1.588,0.927-2.78,0.927c-2.513,0-3.77-1.363-3.77-4.088v-2.671    c0-3.088,1.257-4.633,3.77-4.633c1.309,0,2.242,0.302,2.802,0.905c0.458,0.487,0.727,1.235,0.806,2.246    c0.037,0.632,0.095,1.584,0.175,2.857H129.236L129.236-24.547z M134.032-25.67c0-1.177-0.112-2.024-0.337-2.54    c-0.357-0.814-1.044-1.221-2.062-1.221c-1.017,0-1.703,0.407-2.059,1.221c-0.226,0.516-0.338,1.363-0.338,2.54H134.032    L134.032-25.67z"/>
		<path id="path4271" fill="#FFFFFF" d="M138.394-19.38h-1.373v-10.956h1.373v1.243c0.742-0.974,1.614-1.461,2.617-1.461    c2.005,0,3.009,1.156,3.009,3.467v7.708h-1.373v-7.643c0-1.606-0.651-2.409-1.952-2.409c-0.727,0-1.295,0.287-1.701,0.861    c-0.4,0.574-0.6,1.348-0.6,2.321V-19.38L138.394-19.38z"/>
		<path id="path4273" fill="#FFFFFF" d="M144.947-29.213v-1.123h1.733v-2.224l1.373-0.599v2.823h2.192v1.123h-2.192v7.02    c0,0.641,0.084,1.083,0.252,1.33c0.167,0.241,0.461,0.36,0.884,0.36c0.218,0,0.571-0.036,1.057-0.109v1.21l-1.483,0.077    c-1.388,0-2.083-0.72-2.083-2.159v-7.729H144.947L144.947-29.213z"/>
	</g>
	<g id="g34" transform="matrix(2.354532,0,0,2.354532,12.633341,-67.350761)">
		<g id="g36">
			<g id="g42" transform="translate(51.5342,33.9111)">
				<path id="path44" fill="#FFFFFF" d="M-23.089,2.953c0,0.629-0.511,1.14-1.141,1.14c-0.529,0-0.97-0.362-1.099-0.851h-1.116      c-0.055,0.373-0.214,0.711-0.447,0.986l0.779,0.765c0.448-0.352,1.094-0.326,1.507,0.086c0.445,0.445,0.445,1.168,0,1.613      c-0.446,0.446-1.168,0.446-1.613,0c-0.407-0.407-0.438-1.045-0.1-1.491l-0.78-0.765c-0.312,0.273-0.709,0.448-1.147,0.48v1.083      c0.572,0.061,1.019,0.54,1.019,1.129c0,0.63-0.511,1.14-1.14,1.14c-0.63,0-1.141-0.51-1.141-1.14      c0-0.571,0.422-1.041,0.969-1.123V4.916c-0.433-0.032-0.827-0.203-1.137-0.47l-0.746,0.747c0.345,0.447,0.318,1.09-0.093,1.499      c-0.446,0.445-1.168,0.445-1.613,0c-0.446-0.445-0.446-1.167,0-1.613c0.409-0.409,1.051-0.437,1.498-0.093l0.747-0.748      c-0.238-0.275-0.4-0.618-0.456-0.995h-1.068c-0.129,0.488-0.569,0.85-1.098,0.85c-0.63,0-1.14-0.511-1.14-1.14h1.141V2.951      h4.112h4.161v0.003H-23.089z"/>
			</g>
		</g>
	</g>
</g>
<g>
	<path fill="#FFFFFF" d="M186.868,27.456V7.957h6.389c2.151,0,3.834,0.444,5.049,1.333c1.215,0.888,1.823,2.216,1.823,3.984   c0,0.857-0.246,1.629-0.733,2.316c-0.484,0.688-1.161,1.209-2.027,1.567c1.249,0.206,2.21,0.746,2.885,1.621   c0.675,0.875,1.014,1.901,1.014,3.081c0,1.83-0.6,3.221-1.795,4.171c-1.198,0.951-2.849,1.427-4.956,1.427H186.868z    M190.123,16.167h3.481c1.01,0,1.807-0.239,2.392-0.716c0.584-0.478,0.876-1.155,0.876-2.029c0-0.964-0.308-1.681-0.924-2.149   c-0.615-0.469-1.514-0.703-2.691-0.703h-3.134V16.167z M190.123,18.59v6.267h4.393c1.124,0,1.991-0.257,2.598-0.77   c0.607-0.513,0.911-1.257,0.911-2.229c0-0.982-0.299-1.764-0.898-2.344c-0.597-0.581-1.437-0.889-2.517-0.924h-0.175H190.123z"/>
	<path fill="#FFFFFF" d="M215.22,18.684h-7.633v6.174h9v2.599h-12.255V7.957h12.16v2.611h-8.905v5.504h7.633V18.684z"/>
	<path fill="#FFFFFF" d="M233.139,10.568h-6.026v16.888h-3.255V10.568h-5.932V7.957h15.213V10.568z"/>
	<path fill="#FFFFFF" d="M244.308,22.903h-6.91l-1.5,4.553h-3.361l6.804-19.499h3.093l6.724,19.499h-3.361L244.308,22.903z    M238.296,20.185h5.129l-2.504-7.688h-0.08L238.296,20.185z"/>
</g>
<g>
	<path fill="#FFFFFF" d="M176.38,27.637h-2.793l7.178-19.8h2.792L176.38,27.637z"/>
</g>
</svg>