<?xml version="1.0" encoding="UTF-8"?><svg id="Layer_1" xmlns="http://www.w3.org/2000/svg" viewBox="0 0 470 450"><defs><style>.cls-1{fill:#8c7100;}.cls-2{fill:#e4a301;}</style></defs><path class="cls-1" d="M235,21.97c18.76,0,36.44,11.98,48.5,32.88l161.57,279.84c12.06,20.89,13.6,42.2,4.22,58.44-9.38,16.25-28.6,25.57-52.72,25.57H73.43c-24.13,0-43.34-9.32-52.72-25.57-9.38-16.25-7.84-37.55,4.22-58.44L186.5,54.85c12.06-20.89,29.74-32.88,48.5-32.88h0Zm0-1.7c-19.39,0-37.6,12.29-49.98,33.73L23.45,333.84c-12.38,21.44-13.91,43.36-4.22,60.15,9.69,16.79,29.45,26.42,54.2,26.42H396.57c24.75,0,44.51-9.63,54.2-26.42,9.69-16.79,8.16-38.71-4.22-60.15L284.98,54c-12.38-21.44-30.59-33.73-49.98-33.73h0Z"/><path class="cls-2" d="M332.32,210.77l-73.68-129.24c-6.74-11.82-15.14-18.33-23.65-18.33s-16.91,6.51-23.65,18.33l-73.68,129.24-73.68,129.24c-6.74,11.82-8.1,22.44-3.85,29.91,4.26,7.47,14.02,11.58,27.5,11.58H382.35c13.48,0,23.24-4.11,27.5-11.58,4.26-7.47,2.89-18.09-3.85-29.91l-73.68-129.24Zm-97.17,138.42h-.6c-10.22,0-17.09-7.32-17.09-18.21s6.94-18.21,17.69-18.21,17.18,6.87,17.39,18.39c0,10.89-6.83,18.04-17.39,18.04Zm29.41-194.46l-18.46,136.23c-.26,5.47-4.85,9.9-10.26,9.9h-1.3c-5.4,0-10-4.43-10.26-9.9l-18.47-136.42c-.26-5.47,3.04-12.25,7.91-13.82,3.04-.98,18.01-1.46,21.04-1.46s18.21,.52,21.46,1.57c5.1,1.64,8.6,8.44,8.34,13.9Z"/><path class="cls-2" d="M446.55,333.84L284.98,54c-12.38-21.44-30.59-33.73-49.98-33.73s-37.6,12.29-49.98,33.73L23.45,333.84c-12.38,21.44-13.91,43.36-4.22,60.15,9.69,16.79,29.45,26.42,54.2,26.42H396.57c24.75,0,44.51-9.63,54.2-26.42,9.69-16.79,8.16-38.71-4.22-60.15Zm-49.98,69.03H73.43c-38.43,0-54-26.98-34.79-60.25L119.43,202.69,200.21,62.77c9.61-16.64,22.2-24.96,34.79-24.96s25.18,8.32,34.79,24.96l80.78,139.92,80.78,139.92c19.21,33.28,3.64,60.25-34.79,60.25Z"/></svg>